<svg width="45" height="45" viewBox="0 0 45 45" fill="none" xmlns="http://www.w3.org/2000/svg">
<path d="M20.8302 6.91724L31.769 15.5827L33.9168 22.4998L23.6837 24.4548L11.8022 13.623L14.3261 8.43886L20.8302 6.91724Z" fill="#DDDDDD" stroke="#C9C9C9" stroke-width="2" stroke-linejoin="round"/>
<path d="M14.3257 8.43884L24.8307 17.439L14.3257 8.43884Z" fill="#DDDDDD"/>
<path d="M14.3257 8.43884L24.8307 17.439" stroke="#C9C9C9" stroke-width="2" stroke-linecap="round"/>
<path d="M23.6836 24.4549L24.831 16.9991L31.7689 15.5828" fill="#DDDDDD"/>
<path d="M23.6836 24.4549L24.831 16.9991L31.7689 15.5828" stroke="#C9C9C9" stroke-width="2" stroke-linecap="round" stroke-linejoin="round"/>
<path d="M23.4309 29.0839L25.5742 35.7218L14.6259 37.8549L3.75 27.2006L6.15986 21.2112L11.2767 20.0189" fill="#DDDDDD"/>
<path d="M23.4309 29.0839L25.5742 35.7218L14.6259 37.8549L3.75 27.2006L6.15986 21.2112L11.2767 20.0189" stroke="#C9C9C9" stroke-width="2" stroke-linecap="round" stroke-linejoin="round"/>
<path d="M6.15967 21.2109L16.2035 30.7103L6.15967 21.2109Z" fill="#DDDDDD"/>
<path d="M6.15967 21.2109L16.2035 30.7103" stroke="#C9C9C9" stroke-width="2" stroke-linecap="round"/>
<path d="M14.626 37.3732L16.3935 30.1241L23.4288 29.1033" fill="#DDDDDD"/>
<path d="M14.626 37.3732L16.3935 30.1241L23.4288 29.1033" stroke="#C9C9C9" stroke-width="2" stroke-linecap="round" stroke-linejoin="round"/>
<path d="M32.7064 27.7572L31.875 34.4999L40.5338 32.8111L38.7012 26.4258L32.7064 27.7572Z" fill="#DDDDDD" stroke="#C9C9C9" stroke-width="2" stroke-linejoin="round"/>
</svg>
