<svg width="96" height="64" viewBox="0 0 96 64" fill="none" xmlns="http://www.w3.org/2000/svg">
<path d="M46.7086 17.0105H49.1787C49.4594 17.0105 49.684 16.7859 49.684 16.5052C49.684 16.2245 49.4594 16 49.1787 16H46.7086V17.0105ZM46.7086 19.3684H49.2349C49.5717 19.3684 49.7963 19.1438 49.7963 18.807C49.7963 18.4702 49.5717 18.2456 49.2349 18.2456H46.7086V19.3684ZM50.6945 17.5719C51.0314 17.9088 51.2559 18.3579 51.2559 18.8631C51.2559 19.8737 50.47 20.6596 49.4594 20.6596H45.3612V14.7649H49.4033C50.3577 14.7649 51.1436 15.5509 51.1436 16.5052C51.0875 16.8982 50.9191 17.2912 50.6945 17.5719ZM51.6489 27.6772H50.1331L49.684 26.6666H46.3717L45.9226 27.6772H44.4068L47.3261 21.7824H48.6735L51.6489 27.6772ZM47.9998 23.2982L46.9893 25.4316H49.0103L47.9998 23.2982ZM50.0208 28.9684H51.705L48.7296 32.7859V34.8631H47.3261V32.7859L44.3507 28.9684H46.0349L48.0559 31.6631L50.0208 28.9684ZM57.8243 28.9684V30.2596H53.8945V31.2702H57.7121V32.5614H53.8945V33.6842H57.8243V34.9754H52.491V28.9684H57.8243ZM62.1472 32.6175H61.0805V34.8631H59.677V28.9684H63.27C64.2805 28.9684 65.0665 29.8105 65.0665 30.821C65.0665 31.6631 64.505 32.3368 63.7752 32.5614L65.5156 34.8631H63.8314L62.1472 32.6175ZM63.1577 30.2035H61.1366V31.3263H63.1577C63.4945 31.3263 63.7191 31.0456 63.7191 30.7649C63.7191 30.4842 63.4384 30.2035 63.1577 30.2035ZM44.9682 34.8631H43.4524L43.0033 33.8526H39.691L39.2419 34.8631H37.7261L40.7015 28.9684H42.0489L44.9682 34.8631ZM41.3191 30.4842L40.3086 32.6175H42.3857L41.3191 30.4842ZM32.3928 31.214H34.8629C35.1436 31.214 35.3682 30.9895 35.3682 30.7088C35.3682 30.4281 35.1436 30.2035 34.8629 30.2035H32.3928V31.214ZM32.3928 33.5719H34.9191C35.2559 33.5719 35.4805 33.3473 35.4805 33.0105C35.4805 32.6737 35.2559 32.4491 34.9191 32.4491H32.3928V33.5719ZM36.3787 31.7754C36.7156 32.1123 36.9401 32.5614 36.9401 33.0666C36.9401 34.0772 36.1542 34.8631 35.1436 34.8631H30.9893V28.9684H35.0314C35.9857 28.9684 36.7717 29.7544 36.7717 30.7088C36.7717 31.1017 36.6033 31.4947 36.3787 31.7754ZM50.6945 36.0982V37.3895H46.7647V38.4H50.5822V39.6912H46.7647V40.814H50.6945V42.1052H45.3612V36.0982H50.6945ZM49.684 45.2491C49.684 44.9123 49.4594 44.6877 49.1226 44.6877H46.7086V45.8105H49.1226C49.4594 45.8105 49.684 45.5859 49.684 45.2491ZM45.305 49.3473V43.4526H49.2349C50.2454 43.4526 51.0314 44.2947 51.0314 45.3052C51.0314 46.0912 50.5822 46.7087 49.9086 46.9894L51.705 49.3473H50.0208L48.3366 47.1017H46.7086V49.3473H45.305Z" fill="#10384F"/>
<path d="M69.277 30.6526C68.6034 19.5368 59.3402 10.6666 47.9998 10.6666C36.6595 10.6666 27.3963 19.5368 26.7227 30.6526C26.7227 31.1017 26.7788 31.5508 26.8349 32C27.2841 35.7052 28.6876 39.1298 30.8209 41.9929C34.6946 47.2701 40.9262 50.6947 47.9998 50.6947C38.1191 50.6947 30.0349 43.0035 29.3613 33.3473C29.3051 32.8982 29.3051 32.4491 29.3051 32C29.3051 31.5508 29.3051 31.1017 29.3613 30.6526C30.0349 20.9964 38.1191 13.3052 47.9998 13.3052C55.0735 13.3052 61.3051 16.7298 65.1788 22.007C67.3121 24.8701 68.7156 28.2947 69.1648 32C69.2209 32.4491 69.277 32.8982 69.277 33.2912C69.277 32.8421 69.3332 32.3929 69.3332 31.9438C69.3332 31.5508 69.3332 31.1017 69.277 30.6526Z" fill="#89D329"/>
<path d="M26.7231 33.3474C27.3968 44.4632 36.66 53.3334 48.0003 53.3334C59.3407 53.3334 68.6038 44.4632 69.2775 33.3474C69.2775 32.8983 69.2214 32.4492 69.1652 32C68.7161 28.2948 67.3126 24.8702 65.1793 22.0071C61.3056 16.7299 55.074 13.3053 48.0003 13.3053C57.881 13.3053 65.9652 20.9965 66.6389 30.6527C66.6951 31.1018 66.6951 31.5509 66.6951 32C66.6951 32.4492 66.6951 32.8983 66.6389 33.3474C65.9652 43.0597 57.881 50.6948 48.0003 50.6948C40.9266 50.6948 34.6951 47.2702 30.8214 41.993C28.688 39.1299 27.2845 35.7053 26.8354 32C26.7793 31.5509 26.7231 31.1018 26.7231 30.7088C26.7231 31.1579 26.667 31.607 26.667 32.0562C26.667 32.4492 26.667 32.8983 26.7231 33.3474Z" fill="#00BCFF"/>
</svg>
