<svg width="74" height="9" viewBox="0 0 74 9" fill="none" xmlns="http://www.w3.org/2000/svg">
<g clip-path="url(#clip0_14_1917)">
<mask id="mask0_14_1917" style="mask-type:luminance" maskUnits="userSpaceOnUse" x="0" y="0" width="74" height="9">
<path d="M74 0H0V9H74V0Z" fill="white"/>
</mask>
<g mask="url(#mask0_14_1917)">
<path d="M73.7737 0.773254V8.63521L68.969 2.9991V8.17574H67.9678V0.272949L72.7819 5.91926V0.773254H73.7737Z" fill="black"/>
<path d="M62.6713 0.620117C62.6713 0.620117 61.6977 0.630328 60.9149 1.15106C60.9149 1.15106 60.1324 1.66157 59.6774 2.53966C59.6774 2.53966 59.2132 3.40754 59.2041 4.50005C59.2041 4.50005 59.2132 5.58234 59.6683 6.43998C59.6683 6.43998 60.1324 7.29765 60.9058 7.79796C60.9058 7.79796 61.6886 8.30848 62.6713 8.31869C62.6713 8.31869 63.627 8.30848 64.4004 7.78775C64.4004 7.78775 65.1738 7.27723 65.6288 6.40938C65.6288 6.40938 66.093 5.5415 66.1021 4.46942C66.1021 4.46942 66.093 3.39733 65.6288 2.52945C65.6288 2.52945 65.1738 1.66157 64.4004 1.15106C64.4004 1.15106 63.627 0.630328 62.6713 0.620117ZM62.6622 1.67178C62.6622 1.67178 63.363 1.68199 63.9089 2.04956C63.9089 2.04956 64.4551 2.41713 64.7734 3.03996C64.7734 3.03996 65.1012 3.67301 65.1012 4.47963C65.1012 4.47963 65.0921 5.25561 64.7734 5.88866C64.7734 5.88866 64.446 6.51149 63.8907 6.87903C63.8907 6.87903 63.3448 7.25681 62.6622 7.25681C62.6622 7.25681 61.9705 7.2466 61.4155 6.88924C61.4155 6.88924 60.8605 6.5217 60.5328 5.89887C60.5328 5.89887 60.2144 5.26582 60.2053 4.47963C60.2053 4.47963 60.2144 3.68322 60.5328 3.05017C60.5328 3.05017 60.8514 2.41713 61.4064 2.04956C61.4064 2.04956 61.9614 1.68199 62.6622 1.67178Z" fill="black"/>
<path d="M56.7833 1.81472V8.17576H55.7821V1.81472H54.2715V0.763062H58.3031V1.81472H56.7833Z" fill="black"/>
<path d="M53.3341 1.81472H51.8143V8.17576H50.8134V1.81472H49.3027V0.763062H53.3341V1.81472Z" fill="black"/>
<path d="M47.592 0.763062V8.17576H46.5908V0.763062H47.592Z" fill="black"/>
<path d="M44.2614 0.763062V5.53128C44.2614 5.53128 44.2523 6.3379 43.9431 6.96073C43.9431 6.96073 43.6244 7.58356 43.0785 7.95113C43.0785 7.95113 42.5324 8.3085 41.8316 8.31871C41.8316 8.31871 41.122 8.3085 40.5667 7.95113C40.5667 7.95113 40.0208 7.58356 39.7022 6.96073C39.7022 6.96073 39.3929 6.3379 39.3838 5.53128V0.763062H40.3847V5.22497C40.3847 5.22497 40.3847 5.70486 40.4303 5.99075C40.4303 5.99075 40.4758 6.27664 40.594 6.50127C40.594 6.50127 40.776 6.85863 41.1037 7.05262C41.1037 7.05262 41.4312 7.25683 41.8316 7.25683C41.8316 7.25683 42.2231 7.25683 42.5506 7.05262C42.5506 7.05262 42.8692 6.85863 43.0603 6.50127C43.0603 6.50127 43.1785 6.27664 43.2241 5.99075L43.2605 5.22497V0.763062H44.2614Z" fill="black"/>
<path d="M31.9668 0.763062H33.0586L34.8788 5.89886L36.726 0.763062H37.818L34.8605 8.72712L31.9668 0.763062Z" fill="black"/>
<path d="M26.1609 1.82493C26.1609 1.82493 25.9425 1.67178 25.6058 1.67178C25.6058 1.67178 25.1872 1.68199 24.9233 1.93725C24.9233 1.93725 24.6594 2.19251 24.6503 2.59071C24.6503 2.59071 24.6412 2.96849 24.9597 3.21354L25.1235 3.33606L25.3783 3.46879L26.0244 3.76489C26.0244 3.76489 26.8161 4.13247 27.1892 4.65319C27.1892 4.65319 27.5714 5.18413 27.5623 5.91928C27.5623 5.91928 27.5623 6.61358 27.2893 7.15473C27.2893 7.15473 27.0254 7.68567 26.5522 8.00219C26.5522 8.00219 26.079 8.3085 25.4784 8.31871C25.4784 8.31871 24.5866 8.3085 24.0314 7.74693C24.0314 7.74693 23.4763 7.17515 23.3398 6.13369L24.3499 5.86823L24.4228 6.36853C24.4228 6.36853 24.4683 6.55232 24.5411 6.68505C24.5411 6.68505 24.6685 6.95052 24.9233 7.10368C24.9233 7.10368 25.1781 7.25683 25.4875 7.25683C25.4875 7.25683 25.9607 7.24662 26.261 6.90968C26.261 6.90968 26.5613 6.57274 26.5704 6.03159C26.5704 6.03159 26.5613 5.39855 26.1154 5.0514C26.1154 5.0514 25.8788 4.87782 25.624 4.76551L24.9961 4.4592C24.9961 4.4592 23.631 3.82616 23.6402 2.59071C23.6402 2.59071 23.6402 2.01893 23.904 1.57989C23.904 1.57989 24.1588 1.14084 24.6048 0.885586C24.6048 0.885586 25.0507 0.630328 25.6149 0.620117C25.6149 0.620117 26.2064 0.620117 26.6341 0.916217C26.6341 0.916217 27.0709 1.21232 27.3985 1.86578L26.5977 2.40692C26.5977 2.40692 26.3793 1.9883 26.1609 1.82493Z" fill="black"/>
<path d="M21.3467 0.763062V8.17576H20.3457V0.763062H21.3467Z" fill="black"/>
<path d="M17.0154 0.763062H18.0164V5.53128C18.0164 5.53128 18.0073 6.3379 17.6979 6.96073C17.6979 6.96073 17.3794 7.58356 16.8333 7.95113C16.8333 7.95113 16.2873 8.3085 15.5866 8.31871C15.5866 8.31871 14.8768 8.3085 14.3217 7.95113C14.3217 7.95113 13.7757 7.58356 13.4572 6.96073C13.4572 6.96073 13.1478 6.3379 13.1387 5.53128V0.763062H14.1397V5.22497C14.1397 5.22497 14.1397 5.70486 14.1852 5.99075C14.1852 5.99075 14.2307 6.27664 14.349 6.50127C14.349 6.50127 14.531 6.85863 14.8586 7.05262C14.8586 7.05262 15.1862 7.25683 15.5866 7.25683C15.5866 7.25683 15.9779 7.25683 16.3055 7.05262C16.3055 7.05262 16.624 6.85863 16.8151 6.50127C16.8151 6.50127 16.9335 6.27664 16.979 5.99075L17.0154 5.22497V0.763062Z" fill="black"/>
<path d="M7.71522 0.620117C7.71522 0.620117 6.74152 0.630328 5.95888 1.15106C5.95888 1.15106 5.17628 1.66157 4.72126 2.53966C4.72126 2.53966 4.25716 3.40754 4.24805 4.50005C4.24805 4.50005 4.25716 5.58234 4.71215 6.43998C4.71215 6.43998 5.17628 7.29765 5.9498 7.79796C5.9498 7.79796 6.7324 8.30848 7.71522 8.31869C7.71522 8.31869 8.67073 8.30848 9.44426 7.78775C9.44426 7.78775 10.2178 7.27723 10.6728 6.40938C10.6728 6.40938 11.1369 5.5415 11.146 4.46942C11.146 4.46942 11.1369 3.39733 10.6728 2.52945C10.6728 2.52945 10.2178 1.66157 9.44426 1.15106C9.44426 1.15106 8.67073 0.630328 7.71522 0.620117ZM7.70614 1.67178C7.70614 1.67178 8.40685 1.68199 8.95285 2.04956C8.95285 2.04956 9.49887 2.41713 9.81738 3.03996C9.81738 3.03996 10.1359 3.67301 10.145 4.47963C10.145 4.47963 10.1359 5.25561 9.81738 5.88866C9.81738 5.88866 9.48976 6.51149 8.93465 6.87903C8.93465 6.87903 8.38865 7.25681 7.70614 7.25681C7.70614 7.25681 7.01451 7.2466 6.4594 6.88924C6.4594 6.88924 5.90429 6.5217 5.57668 5.89887C5.57668 5.89887 5.25817 5.26582 5.24906 4.47963C5.24906 4.47963 5.25817 3.68322 5.57668 3.05017C5.57668 3.05017 5.89518 2.41713 6.45029 2.04956C6.45029 2.04956 7.0054 1.68199 7.70614 1.67178Z" fill="black"/>
<path d="M1.22661 0.763062V7.11389H3.16494V8.17576H0.225586V0.763062H1.22661Z" fill="black"/>
</g>
</g>
<defs>
<clipPath id="clip0_14_1917">
<rect width="74" height="9" fill="white"/>
</clipPath>
</defs>
</svg>
