<svg width="25" height="24" viewBox="0 0 25 24" fill="none" xmlns="http://www.w3.org/2000/svg">
<path d="M16.5437 4H7.54212C6.61412 4.00028 5.72423 4.36913 5.06813 5.02543C4.41203 5.68172 4.04346 6.57173 4.04346 7.49973V16.5003C4.04346 17.4285 4.41218 18.3186 5.0685 18.975C5.72483 19.6313 6.615 20 7.54319 20H16.5437C17.4719 20 18.3621 19.6313 19.0184 18.975C19.6747 18.3186 20.0435 17.4285 20.0435 16.5003V7.49867C20.0432 6.57066 19.6743 5.68077 19.018 5.02467C18.3617 4.36857 17.4717 4 16.5437 4Z" fill="#765151"/>
<path fill-rule="evenodd" clip-rule="evenodd" d="M15.599 7H8.4879C8.24244 7 8.04346 7.16582 8.04346 7.37037V7.37037C8.04346 7.57486 8.24231 7.74063 8.48765 7.74075V11.8148C8.24231 11.8149 8.04346 11.9806 8.04346 12.1851C8.04346 12.3896 8.24231 12.5554 8.48765 12.5555V16.2592C8.24231 16.2593 8.04346 16.4251 8.04346 16.6296C8.04346 16.834 8.24231 16.9998 8.48765 16.9999V17H15.5988V16.9999H15.599C15.8445 16.9999 16.0435 16.8341 16.0435 16.6296C16.0435 16.425 15.8445 16.2592 15.599 16.2592H15.5988V12.5555H15.599C15.8445 12.5555 16.0435 12.3897 16.0435 12.1851C16.0435 11.9806 15.8445 11.8148 15.599 11.8148H15.5988V7.74075H15.599C15.8445 7.74075 16.0435 7.57492 16.0435 7.37037C16.0435 7.16582 15.8445 7 15.599 7ZM12.2453 9.05764C12.1941 8.97116 12.0461 8.97116 11.995 9.05764L10.6697 12C10.3434 12.5516 10.4959 13.5874 11.043 14C11.7224 14.5122 12.6374 14.5122 13.3168 14C13.8639 13.5874 14.0163 12.5516 13.6901 12L12.2453 9.05764Z" fill="white"/>
</svg>
