<svg width="25" height="24" viewBox="0 0 25 24" fill="none" xmlns="http://www.w3.org/2000/svg">
<path d="M16.5462 4H7.54456C6.61656 4.00028 5.72667 4.36913 5.07057 5.02543C4.41447 5.68172 4.0459 6.57173 4.0459 7.49973V16.5003C4.0459 17.4285 4.41462 18.3186 5.07095 18.975C5.72727 19.6313 6.61744 20 7.54563 20H16.5462C17.4744 20 18.3645 19.6313 19.0209 18.975C19.6772 18.3186 20.0459 17.4285 20.0459 16.5003V7.49867C20.0456 6.57066 19.6768 5.68077 19.0205 5.02467C18.3642 4.36857 17.4742 4 16.5462 4Z" fill="#4F4F4F"/>
<path d="M11.9989 7.14348C12.0925 6.95218 12.363 6.95217 12.4566 7.14348L15.0982 12.5465C15.6947 13.7666 15.4161 15.2376 14.4157 16.1502C13.1735 17.2833 11.2819 17.2833 10.0398 16.1502C9.0393 15.2376 8.76069 13.7666 9.35722 12.5465L11.9989 7.14348Z" fill="white"/>
</svg>
