<svg width="24" height="24" viewBox="0 0 24 24" fill="none" xmlns="http://www.w3.org/2000/svg">
<path d="M16.5003 4H7.49867C6.57066 4.00028 5.68077 4.36913 5.02467 5.02543C4.36857 5.68172 4 6.57173 4 7.49973V16.5003C4 17.4285 4.36872 18.3186 5.02505 18.975C5.68138 19.6313 6.57155 20 7.49973 20H16.5003C17.4285 20 18.3186 19.6313 18.975 18.975C19.6313 18.3186 20 17.4285 20 16.5003V7.49867C19.9997 6.57066 19.6309 5.68077 18.9746 5.02467C18.3183 4.36857 17.4283 4 16.5003 4Z" fill="#ECF4F8"/>
<path d="M17.1017 10.2937L16.7143 9.28574L16.3268 10.2937L15.4286 10.5715L16.3268 10.85L16.7143 11.8572L17.1017 10.85L18 10.5715L17.1017 10.2937ZM12.3874 6.86518L12 5.85718L11.6126 6.86518L10.7143 7.14289L11.6126 7.42146L12 8.4286L12.3874 7.42146L13.2857 7.14289L12.3874 6.86518ZM7.67314 10.2937L7.28571 9.28574L6.89828 10.2937L6 10.5715L6.89828 10.85L7.28571 11.8572L7.67314 10.85L8.57142 10.5715L7.67314 10.2937Z" fill="#97B9D5"/>
<path fill-rule="evenodd" clip-rule="evenodd" d="M14.2225 12.7142H9.77827C9.68926 12.7153 9.60124 12.6955 9.52124 12.6565C9.44123 12.6175 9.37146 12.5603 9.31749 12.4895C9.26352 12.4187 9.22686 12.3363 9.21043 12.2488C9.19399 12.1613 9.19825 12.0712 9.22284 11.9856L9.88799 9.69879C9.92337 9.57925 9.99652 9.47438 10.0965 9.3999C10.1965 9.32542 10.3179 9.28534 10.4426 9.28565H13.5574C13.8145 9.28565 14.0417 9.4545 14.1128 9.69879L14.7771 11.9865C14.8825 12.3516 14.6065 12.7142 14.2225 12.7142ZM12.978 16.9999H17.4223C17.8063 16.9999 18.0823 16.6373 17.9777 16.2713L17.3125 13.9845C17.2771 13.8648 17.2038 13.7598 17.1037 13.6854C17.0035 13.6109 16.8819 13.5709 16.7571 13.5714H13.6431C13.386 13.5714 13.1588 13.7402 13.0877 13.9845L12.4234 16.2722C12.3163 16.6373 12.594 16.9999 12.978 16.9999ZM6.57856 16.9999H11.022C11.4068 16.9999 11.682 16.6373 11.5774 16.2713L10.9123 13.9845C10.8769 13.865 10.8037 13.7601 10.7038 13.6856C10.6038 13.6111 10.4824 13.571 10.3577 13.5714H7.24285C6.98571 13.5714 6.75856 13.7402 6.68742 13.9845L6.02314 16.2722C5.91599 16.6373 6.19456 16.9999 6.57856 16.9999Z" fill="#97B9D5"/>
</svg>
