<svg width="24" height="24" viewBox="0 0 24 24" fill="none" xmlns="http://www.w3.org/2000/svg">
<path d="M16.5003 4H7.49867C6.57066 4.00028 5.68077 4.36913 5.02467 5.02543C4.36857 5.68172 4 6.57173 4 7.49973V16.5003C4 17.4285 4.36872 18.3186 5.02505 18.975C5.68138 19.6313 6.57155 20 7.49973 20H16.5003C17.4285 20 18.3186 19.6313 18.975 18.975C19.6313 18.3186 20 17.4285 20 16.5003V7.49867C19.9997 6.57066 19.6309 5.68077 18.9746 5.02467C18.3183 4.36857 17.4283 4 16.5003 4Z" fill="#D7E5EF"/>
<path fill-rule="evenodd" clip-rule="evenodd" d="M14.2225 11.7142H9.77827C9.68926 11.7153 9.60124 11.6955 9.52124 11.6565C9.44123 11.6175 9.37146 11.5603 9.31749 11.4895C9.26352 11.4187 9.22686 11.3363 9.21043 11.2488C9.19399 11.1613 9.19825 11.0712 9.22284 10.9856L9.88799 8.69879C9.92337 8.57925 9.99652 8.47438 10.0965 8.3999C10.1965 8.32542 10.3179 8.28534 10.4426 8.28565H13.5574C13.8145 8.28565 14.0417 8.4545 14.1128 8.69879L14.7771 10.9865C14.8825 11.3516 14.6065 11.7142 14.2225 11.7142ZM12.978 15.9999H17.4223C17.8063 15.9999 18.0823 15.6373 17.9777 15.2713L17.3125 12.9845C17.2771 12.8648 17.2038 12.7598 17.1037 12.6854C17.0035 12.6109 16.8819 12.5709 16.7571 12.5714H13.6431C13.386 12.5714 13.1588 12.7402 13.0877 12.9845L12.4234 15.2722C12.3163 15.6373 12.594 15.9999 12.978 15.9999ZM6.57856 15.9999H11.022C11.4068 15.9999 11.682 15.6373 11.5774 15.2713L10.9123 12.9845C10.8769 12.865 10.8037 12.7601 10.7038 12.6856C10.6038 12.6111 10.4824 12.571 10.3577 12.5714H7.24285C6.98571 12.5714 6.75856 12.7402 6.68742 12.9845L6.02314 15.2722C5.91599 15.6373 6.19456 15.9999 6.57856 15.9999Z" fill="white"/>
</svg>
