<svg width="26" height="25" viewBox="0 0 26 25" fill="none" xmlns="http://www.w3.org/2000/svg">
<path d="M22.8625 9.91321L15.0503 2.78003C13.428 1.2987 11.4811 1.38986 10.8073 1.50381C4.66733 2.43819 0 7.29241 0 13.1721C0 19.7128 5.79051 25 12.9287 25C19.8923 25 25.583 19.9179 25.8325 13.6051C25.8325 13.5368 25.8076 13.3089 25.6329 13.2177C25.4332 13.1038 25.0089 13.1493 25.0089 13.1493H20.0171C20.0171 13.1493 19.5429 13.1493 19.3931 13.2177C19.2933 13.2633 19.1685 13.3544 19.1685 13.3544L13.0785 18.8923C12.9787 18.9835 12.8289 18.9835 12.7291 18.8923L6.5892 13.2861C6.48933 13.1949 6.48933 13.0582 6.5892 12.967L12.7291 7.36075C12.8289 7.2696 12.9787 7.2696 13.0785 7.36075L18.6943 12.5112C18.6943 12.5112 18.9938 12.7619 19.2683 12.8075C19.5179 12.8758 19.8923 12.6252 19.8923 12.6252L22.8625 9.91321Z" fill="#2D64AA"/>
<path fill-rule="evenodd" clip-rule="evenodd" d="M25.6024 6.28025L21.4227 2.7562C16.7703 -1.06326 11.3965 1.57449 11.3965 1.57449C11.3965 1.57449 13.6853 0.540494 16.5961 3.15714L23.4876 9.0446L25.5277 7.33535C25.5277 7.33535 25.7765 7.08211 25.8263 6.82888C25.876 6.59676 25.6024 6.28025 25.6024 6.28025Z" fill="#2D64AA"/>
</svg>
