<svg width="62" height="11" viewBox="0 0 62 11" fill="none" xmlns="http://www.w3.org/2000/svg">
<g clip-path="url(#clip0_14_1943)">
<mask id="mask0_14_1943" style="mask-type:luminance" maskUnits="userSpaceOnUse" x="0" y="0" width="62" height="11">
<path d="M61.9092 0.036377H0V10.6815H61.9092V0.036377Z" fill="white"/>
</mask>
<g mask="url(#mask0_14_1943)">
<path d="M24.8645 0.180133H23.3865C23.2579 0.180133 23.1541 0.290043 23.1541 0.426124V7.57037C22.383 6.64388 17.2716 0.509866 17.1432 0.363318C17.0048 0.206302 16.8218 0.180133 16.6983 0.180133H15.2351C15.1016 0.180133 15.0027 0.290043 15.0027 0.426124V10.292C15.0027 10.4281 15.1016 10.538 15.2351 10.538H16.718C16.8416 10.538 16.9504 10.4281 16.9504 10.292V3.09016C17.509 3.76018 22.8823 10.2082 23.0158 10.3548C23.1542 10.5119 23.3371 10.538 23.4607 10.538H24.8695C24.998 10.538 25.1019 10.4281 25.1019 10.292V0.426124C25.0968 0.290043 24.993 0.180133 24.8645 0.180133ZM12.9216 0.180133H11.2755C11.142 0.180133 11.0382 0.290043 11.0382 0.426124V10.292C11.0382 10.4281 11.1421 10.538 11.2755 10.538H12.9216C13.0502 10.538 13.154 10.4281 13.154 10.292V0.426124C13.154 0.290043 13.0502 0.180133 12.9216 0.180133ZM7.37036 5.30933C7.37036 5.44534 7.26657 5.55531 7.13804 5.55531H2.14042V2.00152H7.14297C7.27149 2.00152 7.37532 2.11666 7.37532 2.25267V5.30933H7.37036ZM6.26307 0.180133H0.237276C0.108751 0.180133 0 0.290043 0 0.426124V10.292C0 10.4281 0.103879 10.538 0.237276 10.538H1.90315C2.03167 10.538 2.13548 10.4281 2.13548 10.292V7.37669H6.25815C8.10196 7.37669 9.59978 6.22538 9.59978 4.48238V3.32569C9.6047 1.58804 8.10692 0.180133 6.26307 0.180133ZM61.6669 0.180133H60.1889C60.1584 0.180103 60.1283 0.186446 60.0998 0.198798C60.0716 0.211149 60.0462 0.229268 60.0244 0.252116C60.0029 0.274965 59.9858 0.302094 59.9741 0.331952C59.9624 0.36181 59.9567 0.393813 59.9567 0.426124V7.57037C59.1855 6.64388 54.0741 0.509866 53.9457 0.363318C53.8073 0.206302 53.6243 0.180133 53.5006 0.180133H52.0374C51.9091 0.180133 51.8002 0.290043 51.8002 0.426124V10.292C51.8002 10.4281 51.9091 10.538 52.0374 10.538H53.5157C53.6441 10.538 53.7527 10.4281 53.7527 10.292V3.09016C54.3063 3.76018 59.6799 10.2082 59.8132 10.3548C59.9517 10.5119 60.1346 10.538 60.258 10.538H61.6719C61.8003 10.538 61.9092 10.4281 61.9092 10.292V0.426124C61.9042 0.290043 61.7956 0.180133 61.6669 0.180133ZM33.4212 0.0388184H30.0154C28.1666 0.0388184 26.6688 1.44673 26.6688 3.1896V7.52849C26.6688 9.26614 28.1666 10.6794 30.0154 10.6794H33.4212C35.27 10.6794 36.7727 9.26628 36.7727 7.52849V4.74929H31.5923V6.20956C31.5923 6.35086 31.7011 6.46061 31.8295 6.46061H34.662V8.47567C34.662 8.61175 34.5581 8.72164 34.4298 8.72164H29.0069C28.8735 8.72164 28.7697 8.61175 28.7697 8.47567V2.25274C28.7698 2.18615 28.7948 2.12229 28.8392 2.0752C28.8837 2.0281 28.944 2.00163 29.0069 2.00159H34.4298C34.5632 2.00159 34.662 2.11674 34.662 2.25274V3.44091C34.662 3.57698 34.7659 3.6869 34.8993 3.6869H36.5354C36.6638 3.6869 36.7727 3.57698 36.7727 3.44091V3.18968C36.7727 1.44673 35.27 0.0388184 33.4212 0.0388184ZM46.1994 0.452294C46.1106 0.279501 45.9621 0.164356 45.7744 0.164356H44.3159C44.1333 0.164356 43.9848 0.279501 43.891 0.452294L39.2886 10.046C39.1354 10.36 39.2691 10.5432 39.5409 10.5432H40.9991C41.2166 10.5432 41.2907 10.4855 41.3996 10.2709L45.0425 2.54584L48.6908 10.2658C48.7994 10.4803 48.8785 10.538 49.0909 10.538H50.5444C50.8212 10.538 50.9496 10.3548 50.7964 10.0408L46.1994 0.452294Z" fill="#EA5504"/>
<path d="M46.3031 7.43945H43.7869C43.6586 7.43945 43.5547 7.5546 43.5547 7.69061V10.2918C43.5547 10.4279 43.6586 10.543 43.7869 10.543H46.3031C46.4315 10.543 46.5354 10.4331 46.5354 10.2918V7.69061C46.5354 7.5546 46.4268 7.43945 46.3031 7.43945Z" fill="#005E3C"/>
</g>
</g>
<defs>
<clipPath id="clip0_14_1943">
<rect width="62" height="11" fill="white"/>
</clipPath>
</defs>
</svg>
