<svg width="35" height="16" viewBox="0 0 35 16" fill="none" xmlns="http://www.w3.org/2000/svg">
<path d="M34.9665 11.8398V11.3411H33.5154C33.2382 11.3411 33.0135 11.5628 33.012 11.8367L33.0116 11.8398L33.012 11.8395V15.2773C33.012 15.4148 32.9732 15.4621 32.8387 15.4621H32.6309V15.9608H32.9732C33.516 15.9608 33.516 15.519 33.516 15.3527H33.5156V12.997H34.2249V15.9537H34.729V12.997H34.9665V12.4985H33.5158V12.0647C33.5158 11.9229 33.5917 11.8396 33.7173 11.8396H34.9665V11.8398Z" fill="#003465"/>
<path d="M31.4125 11.8396H32.6617V11.3411H31.2109C30.9338 11.3411 30.7088 11.5628 30.7072 11.8365L30.7068 11.8396L30.7072 11.8393V15.277C30.7072 15.4145 30.6684 15.4622 30.5342 15.4622H30.3262V15.9607H30.6685C31.2113 15.9607 31.2113 15.5192 31.2113 15.3526V14.2602H32.5957V12.4985H31.2113V12.065C31.2113 11.9229 31.2869 11.8396 31.4125 11.8396ZM32.0948 13.7615H31.2113V12.997H32.0948V13.7615Z" fill="#003465"/>
<path d="M18.1917 11.733L17.9064 11.1877H17.4045L17.6887 11.733H15.5928V12.2294H20.297V11.733H18.1917Z" fill="#003465"/>
<path d="M19.7088 13.6723H20.2963V13.1865H19.9087C19.7842 13.1865 19.6687 13.128 19.3715 12.8341L19.0535 12.5127H18.3624L18.9673 13.1162L17.9442 14.0014L16.9209 13.1162L17.5257 12.5127H16.8349L16.5167 12.8341C16.2197 13.1279 16.1039 13.1865 15.9795 13.1865H15.5918V13.6723H16.1794C16.2748 13.6723 16.3658 13.637 16.5364 13.4887L17.5397 14.3513L16.4916 15.2581C16.3287 15.3969 16.194 15.4622 15.8715 15.4622H15.5921V15.961C15.5838 15.961 16.038 15.9606 16.038 15.9606C16.3777 15.9606 16.4647 15.9501 16.7212 15.7503L17.9442 14.6988L19.1669 15.7503C19.4235 15.95 19.5104 15.9606 19.8502 15.9606C19.8502 15.9606 20.3047 15.961 20.296 15.961V15.4622H20.0166C19.6941 15.4622 19.5595 15.3969 19.3965 15.2581L18.3485 14.3513L19.3518 13.4887C19.5223 13.637 19.6133 13.6723 19.7088 13.6723Z" fill="#003465"/>
<path d="M25.0139 1.68413V0.00463867H18.9688V8.47017H25.0139V6.78826H20.667V5.06435H24.7986V3.38336H20.667V1.68413H25.0139Z" fill="#003465"/>
<path d="M5.84212 0.00463867V3.3972H1.69822V0.00463867H0V8.47017H1.69822V5.07762H5.84212V8.47017H7.54034V0.00463867H5.84212Z" fill="#003465"/>
<path d="M17.4697 8.46918L14.3023 3.76279C14.4421 3.64294 14.6392 3.47326 14.754 3.3714C16.2511 2.04027 16.4 0.489385 16.4084 0.00756836H14.7684C14.7634 0.236423 14.7083 1.26523 13.6755 2.1833C13.1894 2.61552 12.3949 3.27474 11.7555 3.79924V0.0350217H10.0635V8.47022H11.7555V5.84601L11.7658 5.8587C11.8102 5.82282 12.3925 5.35312 13.0679 4.79667L15.5064 8.46918H17.4697Z" fill="#003465"/>
<path d="M27.374 0V1.67915C28.7957 1.68261 29.947 2.82388 29.947 4.23138C29.947 5.639 28.7957 6.77993 27.374 6.78339V8.46069C29.7349 8.46069 31.6487 6.56664 31.6487 4.23058C31.6486 1.89393 29.7349 0 27.374 0Z" fill="#E72742"/>
<path d="M34.9671 0V1.67915C33.5454 1.68261 32.394 2.82388 32.394 4.23138C32.394 5.639 33.5453 6.77993 34.9671 6.78339V8.46069C32.6062 8.46069 30.6924 6.56664 30.6924 4.23058C30.6924 1.89393 32.6061 0 34.9671 0Z" fill="#003465"/>
<path d="M27.6326 13.5427V11.9497C27.6326 11.7835 27.6157 11.3416 27.0729 11.3416H23.4768V13.5427H24.2233C24.207 13.5702 23.9733 13.9591 23.9567 13.9839C23.8178 14.1885 23.7847 14.2372 23.5325 14.2372H23.0967V14.7332H23.5325C23.9114 14.7332 24.0975 14.6118 24.2512 14.4254H24.5509C24.475 14.567 24.1116 15.1862 24.0945 15.211C23.9556 15.4156 23.9227 15.4643 23.6706 15.4643H23.2348V15.9603H23.6706C24.1524 15.9603 24.3226 15.7643 24.5106 15.4878C24.5394 15.4451 25.1069 14.4449 25.1173 14.4254H26.0543C25.9785 14.567 25.615 15.1862 25.5981 15.211C25.4588 15.4156 25.426 15.4643 25.1738 15.4643H24.738V15.9603H25.1738C25.6557 15.9603 25.8258 15.7643 26.0138 15.4878C26.0426 15.4451 26.6101 14.4456 26.6205 14.4254H27.1286V15.2174C27.1286 15.3816 27.0544 15.4639 26.8752 15.4639H26.4994V15.9609H27.0898C27.6326 15.9609 27.6326 15.5193 27.6326 15.3527V13.9278H24.5757C24.6304 13.8343 24.7443 13.6399 24.7991 13.5427H27.6326ZM23.9787 11.8403H26.8893C27.0673 11.8403 27.1311 11.9258 27.1311 12.0488V12.2348H23.9787V11.8403ZM23.9787 12.663H27.1311V13.0559H23.9787V12.663Z" fill="#003465"/>
<path d="M8.68591 15.3528V13.9836H8.1818V15.3237C8.1818 15.4336 8.11082 15.4624 8.00977 15.4624H7.80078V15.961H8.14334C8.68614 15.961 8.68614 15.5192 8.68614 15.3528H8.68591Z" fill="#003465"/>
<path d="M7.84766 12.5732L8.13263 13.3283L8.18404 13.4647H8.68709L8.34978 12.5732H7.84766Z" fill="#003465"/>
<path d="M7.84766 11.3999L8.13263 12.1551L8.18404 12.2913H8.68709L8.34978 11.3999H7.84766Z" fill="#003465"/>
<path d="M11.3157 15.0235C11.4583 15.0235 11.7994 15.0222 11.9008 14.6955C11.9013 14.6937 11.902 14.6918 11.9026 14.6897C11.9071 14.6751 11.9108 14.6599 11.9142 14.6441C11.9179 14.627 11.921 14.6091 11.9236 14.5906C11.9242 14.5862 11.9249 14.5819 11.9255 14.5775C11.9292 14.5463 11.932 14.5134 11.932 14.4775V13.9282C12.028 13.9663 12.125 13.9834 12.2329 13.9834H12.5718V13.4644C12.5718 13.4644 12.2129 13.4644 12.2025 13.4638C12.1297 13.4598 12.0364 13.428 11.7992 13.1774L11.7351 13.1059H12.3828V12.6071H11.7561V12.2294H12.3828V11.733H11.7561V11.1877H11.2521V11.733H10.1474V11.1877H9.66557V11.733H9.03734V12.2294H9.66557V12.6071H9.03734V13.1059H9.68492L9.62105 13.1774C9.34982 13.4638 9.26695 13.4644 9.18711 13.4644H8.84863V13.9834H9.18711C9.27068 13.9834 9.34761 13.9725 9.42267 13.9505V15.3528C9.42267 15.519 9.42267 15.9609 9.96547 15.9609H11.7682C11.9365 15.9609 12.3827 15.9609 12.3827 15.4237V15.059H11.879V15.2794C11.879 15.4036 11.8136 15.4622 11.6925 15.4622H10.0264C9.99892 15.4622 9.92654 15.4622 9.92654 15.3743V15.0235H11.3157ZM11.4265 14.342C11.4265 14.4661 11.3611 14.5249 11.2404 14.5249H9.92654V14.1372H11.4264L11.4265 14.342ZM10.1474 12.2294H11.2521V12.6071H10.1474V12.2294ZM10.4024 13.1059L11.0181 13.1044C11.0656 13.1552 11.4799 13.5971 11.5278 13.6425H9.89251C9.94041 13.5969 10.3549 13.1567 10.4024 13.1059Z" fill="#003465"/>
<path d="M4.26151 13.1573C4.14507 13.1573 4.04786 13.1403 3.7637 12.9137C3.71766 12.8772 3.66172 12.8326 3.60076 12.7837H4.69731V12.2868H2.59954V11.9267L4.14169 11.6888V11.1897L2.3944 11.459C2.38998 11.4596 1.94671 11.5256 1.52805 11.5256H0.547113V12.0188H1.52793C1.7291 12.0188 1.93179 12.0052 2.09765 11.99V12.2867H0V12.7836H1.09656C1.03548 12.8325 0.979535 12.8772 0.933612 12.9136C0.649449 13.1403 0.552241 13.1572 0.435802 13.1572H0V13.6762H0.435802C0.717983 13.6762 0.926385 13.5857 1.26276 13.3177C1.43165 13.1829 1.73458 12.9408 1.9311 12.7836H2.09789V13.8236H0.547113V15.3581C0.547113 15.5243 0.547113 15.9609 1.08991 15.9609H4.14472V13.8236H2.59954V12.7836H2.76657C2.96273 12.9409 3.26566 13.1831 3.43455 13.3177C3.77058 13.5859 3.97933 13.6762 4.26151 13.6762H4.69731V13.1572L4.26151 13.1573ZM3.64924 15.4625H1.22104C1.09865 15.4625 1.05122 15.3904 1.05122 15.2529V15.1104H3.64924V15.4625ZM3.64924 14.6821H1.05087V14.3255H3.64924V14.6821Z" fill="#003465"/>
</svg>
