<svg width="62" height="7" viewBox="0 0 62 7" fill="none" xmlns="http://www.w3.org/2000/svg">
<g clip-path="url(#clip0_14_1934)">
<mask id="mask0_14_1934" style="mask-type:luminance" maskUnits="userSpaceOnUse" x="0" y="0" width="62" height="7">
<path d="M61.8411 0H0V7H61.8411V0Z" fill="white"/>
</mask>
<g mask="url(#mask0_14_1934)">
<path d="M0.279891 0.00359414L0 0.971812H2.59343L1.6419 4.34826L0.942199 6.83922H2.64007L3.33973 4.34826L4.29126 0.971812H6.87535L7.1459 0.00354004L0.279891 0.00359414ZM52.1109 0.0780974C51.9729 0.581224 51.846 0.973868 51.7191 1.31116H51.0849L51.29 1.19527C51.6438 0.991668 51.818 0.887082 51.8219 0.872528C51.6329 0.494168 51.4733 0.233 51.3274 0.102878C51.3234 0.0793418 51.054 0.225372 50.5345 0.524954L50.3571 0.624238C50.3609 0.631542 50.3821 0.659622 50.4225 0.706964C50.6053 0.917814 50.7597 1.11643 50.8795 1.31111H50.3571L50.1893 2.0063H51.3646L51.2808 2.14704L51.1967 2.2877H49.928L49.7693 2.9829H50.6463C50.2719 3.38804 49.8268 3.71344 49.3123 3.95946L50.1332 0.483672H47.8663L47.0174 4.0753C46.9947 4.16928 46.969 4.25872 46.9428 4.34836C46.7453 5.04324 46.4515 5.66654 46.0565 6.21868C46.2962 6.40638 46.4912 6.6076 46.6535 6.82278C47.1286 6.22166 47.5017 5.45202 47.7824 4.5056H48.2768L47.9968 5.68076C47.9749 5.84168 47.7905 5.91412 47.4557 5.88766C47.5256 6.1753 47.5554 6.46336 47.5306 6.76488C48.3384 6.76022 48.7462 6.59872 48.7618 6.26836L49.219 4.34836L49.2469 4.21598C49.2954 4.2586 49.3421 4.30276 49.3869 4.34836C49.4958 4.46226 49.5806 4.5742 49.6388 4.68766C49.7626 4.6334 49.9096 4.54996 50.0771 4.42282L49.7786 5.28348H52.4933L52.4466 5.50692C52.3391 5.9717 52.188 6.19748 51.9988 6.16896L52.1481 5.50692H49.2375L49.0695 6.1938H51.439C51.5745 6.45296 51.6325 6.71846 51.607 6.9965C52.3632 6.9747 52.826 6.87142 53.0064 6.68204C53.0628 6.6268 53.1221 6.53082 53.1836 6.36758C53.3072 6.03954 53.4519 5.55984 53.6314 4.92762L53.7339 4.56354H52.7264L52.7825 4.34832L52.8571 4.01734C53.0362 4.15634 53.1951 4.26462 53.3329 4.34832C53.4348 4.41026 53.5247 4.4576 53.6034 4.48904C53.6467 4.44104 53.6911 4.3937 53.7339 4.34832C53.9939 4.06864 54.2405 3.83556 54.471 3.64494C53.8629 3.49134 53.4174 3.27086 53.1369 2.9829H54.471L54.6297 2.2877H52.2322C52.2964 2.20428 52.356 2.11462 52.3999 2.00636H54.3778L54.5363 1.31121H53.8275C54.1371 1.04274 54.4096 0.821938 54.6576 0.64918L53.8275 0.193991C53.5615 0.495196 53.2745 0.788502 52.9597 1.0712L53.4636 1.34427H52.7453L52.8479 1.05465L52.9784 0.764966C53.0876 0.521004 53.1771 0.335638 53.2397 0.218772C53.2458 0.17078 53.2102 0.146595 53.0997 0.13599C52.8905 0.106881 52.5618 0.087674 52.1109 0.0780974ZM57.13 0.13599C56.8768 0.210494 56.4836 0.346514 55.9357 0.549734C56.1082 0.985716 56.2324 1.42067 56.3183 1.8573C56.512 1.79205 56.932 1.66398 57.5682 1.46006C57.3031 0.612658 57.1512 0.169427 57.13 0.13599ZM58.0534 0.508398L57.8575 1.31116H58.6038L58.2493 2.80902H57.3164L57.1205 3.61172H58.0627L57.8855 4.3482L57.3164 6.73988H58.3612L58.921 4.3482L59.0982 3.61172H59.8444L59.6952 4.2158C59.6844 4.2605 59.6765 4.30428 59.6672 4.3482C59.4763 5.2357 59.5743 5.92982 59.9565 6.42542C60.1894 6.71906 60.4703 6.84322 60.8053 6.79788C61.1523 6.81374 61.5 6.31684 61.8408 5.30826C61.5595 5.19498 61.2763 5.08464 60.992 4.97724C60.8227 5.43934 60.7174 5.58928 60.6748 5.42414C60.6081 5.18846 60.6218 4.82996 60.7122 4.34826C60.7413 4.1927 60.7785 4.02552 60.824 3.84346L61.617 0.508398H58.0534ZM42.5582 0.59118L42.2037 1.86563H40.8418L40.5805 2.80906H45.5621L42.5582 0.59118ZM48.5661 1.19527H49.0603L48.8271 2.18004H48.342L48.5661 1.19527ZM59.6393 1.31116H60.423L60.0685 2.80902H59.2849L59.6393 1.31116ZM9.09563 1.58423C8.06047 1.58423 7.16274 1.82424 6.3996 2.3042C5.64063 2.79116 5.14769 3.42906 4.92562 4.21586C4.91256 4.26196 4.89879 4.30324 4.88835 4.34826C4.71782 5.0789 4.86896 5.6747 5.34548 6.12758C5.8533 6.60424 6.63698 6.83922 7.69634 6.83922C9.50201 6.83922 10.8861 5.86202 11.0267 5.75516L10.2431 5.59794C10.0588 5.63564 9.055 5.89356 8.05083 5.81312C6.78397 5.71214 6.4967 4.88926 6.56758 4.4807H11.6518L11.6984 4.34832L11.7358 4.20764C11.9664 3.38734 11.8443 2.7422 11.372 2.27942C10.8957 1.81266 10.1412 1.58423 9.09563 1.58423ZM24.1617 1.58423C23.0726 1.58423 22.0873 1.83485 21.1951 2.3456C20.3014 2.85674 19.7532 3.48992 19.5439 4.23248C19.5324 4.27316 19.5156 4.30822 19.5066 4.34832C19.3503 5.0375 19.5574 5.6205 20.1224 6.09446C20.7216 6.59164 21.5698 6.83928 22.6692 6.83928C23.3352 6.83928 24.0341 6.71678 24.768 6.4752L25.1973 4.96078C24.7091 5.29414 24.2997 5.51558 23.9751 5.63116C23.64 5.7503 23.2777 5.81316 22.8836 5.81316C22.2661 5.81316 21.7989 5.66622 21.4844 5.3663C21.206 5.09616 21.1063 4.75324 21.1858 4.34836C21.1947 4.30372 21.21 4.26202 21.2231 4.21598C21.3518 3.75986 21.6615 3.37652 22.156 3.07396C22.6494 2.7714 23.2078 2.61878 23.8258 2.61878C24.2195 2.61878 24.5382 2.67808 24.7959 2.80084C25.0588 2.91966 25.3341 3.14278 25.6171 3.46288L26.0461 1.93191C25.4899 1.69709 24.8622 1.58423 24.1617 1.58423ZM30.3094 1.58423C29.2739 1.58423 28.3762 1.82424 27.6134 2.3042C26.8541 2.79116 26.361 3.42906 26.1394 4.21586C26.1264 4.26196 26.1128 4.30324 26.1022 4.34826C25.9313 5.0789 26.0819 5.6747 26.5592 6.12758C27.0663 6.60424 27.8511 6.83922 28.91 6.83922C30.715 6.83922 32.1002 5.86202 32.2405 5.75516L31.457 5.59794C31.2726 5.63564 30.2689 5.89356 29.2647 5.81312C27.9981 5.71214 27.7097 4.88926 27.7814 4.4807H32.8656L32.9123 4.34832L32.9495 4.20764C33.1808 3.38734 33.0667 2.7422 32.5951 2.27942C32.1189 1.81266 31.3553 1.58423 30.3094 1.58423ZM17.0811 1.7249C16.3617 1.7249 15.6583 1.92217 14.9728 2.32076L13.4522 1.86563L12.7525 4.34826L12.0528 6.83922H13.704L14.3757 4.43938C14.3843 4.40858 14.395 4.37612 14.4037 4.34826C14.5753 3.77632 14.8055 3.36846 15.0847 3.1318C15.3839 2.88022 15.7996 2.7594 16.344 2.7594C16.8448 2.7594 17.1691 2.84976 17.3049 3.04074C17.4464 3.22746 17.4434 3.56838 17.3049 4.05864L17.2303 4.34826L16.5213 6.83922H18.1724L18.8721 4.34826L19.0308 3.78556C19.2289 3.08414 19.1744 2.58198 18.8628 2.27114C18.5036 1.90697 17.908 1.7249 17.0811 1.7249ZM38.155 1.7249C37.4352 1.7249 36.7329 1.92217 36.0468 2.32076L34.5261 1.86563L33.8263 4.34826L33.1267 6.83922H34.7779L35.4496 4.43938C35.4586 4.40858 35.4687 4.37612 35.4775 4.34826C35.65 3.77632 35.8786 3.36846 36.1586 3.1318C36.4583 2.88022 36.8729 2.7594 37.418 2.7594C37.9183 2.7594 38.2425 2.84976 38.3789 3.04074C38.5198 3.22746 38.5173 3.56838 38.3789 4.05864L38.2948 4.34826L37.5952 6.83922H39.2465L39.946 4.34826L40.1048 3.78556C40.3029 3.08414 40.2479 2.58198 39.9368 2.27114C39.5779 1.90697 38.9811 1.7249 38.155 1.7249ZM54.9189 2.24626L54.723 3.0573H55.6467L55.3387 4.34826L55.1428 5.20896C55.1004 5.38904 54.9381 5.57672 54.6576 5.77994C54.5753 5.84022 54.5244 5.87896 54.5178 5.8959C54.6204 6.18092 54.8033 6.45892 55.0589 6.71516C55.0788 6.7198 55.1879 6.63439 55.3759 6.46687C55.6566 6.20304 56.3686 5.62146 57.5216 4.72078C57.518 4.70914 57.4544 4.58838 57.3351 4.36492L57.3259 4.34832L57.1579 4.01734L56.9712 4.15802C56.8817 4.22788 56.7952 4.29216 56.7194 4.34836C56.5179 4.50328 56.365 4.6169 56.2622 4.68766L56.3463 4.34836L56.8407 2.24636L54.9189 2.24626ZM8.83446 2.61866C9.70986 2.61866 10.1778 2.92388 10.2337 3.53728H6.94066C7.03391 3.39428 7.14218 3.26912 7.27655 3.15658C7.40975 3.0447 7.5601 2.94504 7.72434 2.8669C7.89298 2.78478 8.06949 2.7259 8.25608 2.68484C8.44476 2.6404 8.63922 2.61816 8.83446 2.61866ZM30.0484 2.61866C30.9236 2.61866 31.3923 2.92388 31.4475 3.53728H28.1545C28.2486 3.39428 28.357 3.26912 28.4902 3.15658C28.6244 3.0447 28.7759 2.94504 28.938 2.8669C29.1082 2.78478 29.2834 2.7259 29.4698 2.68484C29.6585 2.64044 29.8531 2.61818 30.0484 2.61866ZM48.1742 2.86696H48.6592L48.4448 3.78556H47.9596L48.1742 2.86696ZM51.7472 2.9828H52.0363C52.0764 3.08444 52.1296 3.18164 52.195 3.27242H51.4859L51.6167 3.12348L51.7472 2.9828ZM41.8773 3.02418L41.5042 4.34826L40.7951 6.83922H42.4369L43.1459 4.34826L43.519 3.02418H41.8773ZM50.7397 3.92624H51.9057L51.8124 4.34826L51.7472 4.58832H50.9448C50.9748 4.4996 51.0017 4.42016 51.0289 4.34826C51.0598 4.26554 51.0849 4.19504 51.1128 4.13308C51.0736 4.11322 51.0499 4.10002 51.0289 4.10002H50.5438L50.7397 3.92624Z" fill="#006CB6"/>
</g>
</g>
<defs>
<clipPath id="clip0_14_1934">
<rect width="62" height="7" fill="white"/>
</clipPath>
</defs>
</svg>
