<svg width="33" height="32" viewBox="0 0 33 32" fill="none" xmlns="http://www.w3.org/2000/svg">
<path d="M11.9927 0.641614C11.8618 0.677513 11.7307 0.713011 11.5996 0.748147C10.6742 1.00055 9.83343 1.33984 8.98006 1.77797C8.87436 1.8318 8.76865 1.88563 8.65975 1.9411C6.72453 2.95719 4.71179 4.42259 3.42548 6.22869C3.42548 6.29119 3.42548 6.35369 3.42548 6.41809C3.36335 6.41809 3.30121 6.41809 3.23719 6.41809C3.02345 6.68307 2.85289 6.98184 2.67232 7.27035C2.61358 7.36191 2.55485 7.45346 2.49433 7.54778C0.457832 10.7817 -0.338242 14.3516 0.130398 18.1604C0.137615 18.2299 0.144836 18.2994 0.152279 18.371C0.197594 18.7919 0.289097 19.1768 0.41283 19.5809C0.446964 19.7031 0.480785 19.8254 0.514332 19.9478C0.880283 21.2558 1.34135 22.4569 2.00742 23.641C2.05354 23.7232 2.09967 23.8053 2.14719 23.89C2.42708 24.375 2.73293 24.8204 3.08264 25.2571C3.29289 25.5223 3.48784 25.7976 3.68328 26.0739C3.72248 26.1187 3.76168 26.1635 3.80206 26.2096C3.8642 26.2096 3.92634 26.2096 3.99036 26.2096C4.01087 26.261 4.03138 26.3124 4.05251 26.3653C4.22133 26.6639 4.44889 26.8884 4.69056 27.127C4.74113 27.1771 4.7917 27.2273 4.8438 27.279C7.12161 29.5098 9.96019 30.8724 13.0283 31.6073C13.1344 31.6332 13.1344 31.6332 13.2427 31.6596C15.942 32.2864 19.0838 32.0108 21.6897 31.1338C21.7917 31.1011 21.8938 31.0684 21.999 31.0347C23.3476 30.5799 24.6647 29.9649 25.8321 29.1452C25.9329 29.0776 26.0338 29.0099 26.1377 28.9403C27.8873 27.7478 29.376 26.18 30.5393 24.4104C30.576 24.3549 30.6127 24.2994 30.6504 24.2422C32.2547 21.7769 33.0092 18.9124 32.9989 15.9824C32.9993 15.8784 32.9996 15.7744 33 15.6672C32.9971 13.2 32.3778 10.8509 31.1984 8.6908C31.158 8.61194 31.1175 8.53308 31.0759 8.45184C30.7355 7.80003 30.3047 7.20564 29.8803 6.60748C29.8231 6.52594 29.7658 6.44439 29.7068 6.36038C29.4279 5.97263 29.4279 5.97263 29.3155 5.84991C29.2533 5.84991 29.1912 5.84991 29.1272 5.84991C29.1016 5.79369 29.0761 5.73747 29.0498 5.67954C27.7643 3.26331 24.0672 1.58174 21.6091 0.797345C21.5425 0.777203 21.4759 0.757062 21.4072 0.73631C21.2942 0.701703 21.2942 0.701703 21.1789 0.666398C18.251 -0.184371 14.9151 -0.250449 11.9927 0.641614ZM25.4908 8.08711C25.7216 8.42637 25.7437 8.7588 25.7379 9.16428C25.6429 9.5946 25.4444 9.78188 25.0789 10.0165C24.9413 10.0516 24.8034 10.0851 24.6652 10.1175C24.3091 10.2341 24.1617 10.3414 23.9867 10.6754C23.9202 10.8273 23.8568 10.9807 23.7962 11.1351C23.7258 11.2988 23.6553 11.4624 23.5847 11.626C23.551 11.7067 23.5173 11.7874 23.4825 11.8705C23.3469 12.1872 23.1936 12.4914 23.0371 12.7982C22.7841 13.3032 22.543 13.8118 22.313 14.3278C22.2002 14.5709 22.0832 14.8055 21.9578 15.0417C21.5324 15.8614 21.3248 16.4573 21.4175 17.3866C21.4045 17.767 21.2966 17.8972 21.0307 18.1604C20.9375 18.2053 20.8443 18.2503 20.7482 18.2966C20.2166 18.5751 20.0095 19.1504 19.7715 19.6815C19.7285 19.7755 19.7285 19.7755 19.6848 19.8715C19.5995 20.0585 19.5147 20.2458 19.4302 20.4331C19.0075 21.3651 18.5687 22.2886 18.1251 23.2107C18.0777 23.3097 18.0302 23.4088 17.9812 23.5108C17.9385 23.5996 17.8957 23.6885 17.8517 23.7801C17.4945 24.5538 17.4945 24.5538 17.5473 24.9786C17.5939 25.0508 17.6405 25.1231 17.6885 25.1975C17.8772 25.5375 17.9185 25.8347 17.8297 26.2096C17.6074 26.5761 17.3908 26.8302 16.9824 26.9672C16.3751 27.0181 16.0705 26.9407 15.5702 26.5884C15.3678 26.2829 15.3584 26.2002 15.3643 25.8486C15.3649 25.7698 15.3655 25.6911 15.3661 25.61C15.3745 25.3517 15.3745 25.3517 15.4507 25.0866C15.485 24.6851 15.3343 24.4256 15.1466 24.0849C15.076 23.9503 15.0057 23.8157 14.9355 23.6809C14.8818 23.5792 14.8818 23.5792 14.8271 23.4754C14.6691 23.17 14.5247 22.8588 14.3817 22.546C14.3551 22.4882 14.3286 22.4304 14.3013 22.3708C14.275 22.3135 14.2487 22.2562 14.2217 22.1972C14.1148 21.9644 14.007 21.7325 13.8973 21.5011C13.8455 21.3908 13.7937 21.2806 13.7403 21.167C13.6938 21.0689 13.6473 20.9707 13.5994 20.8696C13.4812 20.6232 13.4812 20.6232 13.499 20.3384C13.4369 20.3384 13.3748 20.3384 13.3107 20.3384C13.2202 20.1294 13.1301 19.9203 13.0401 19.7111C13.002 19.6234 13.002 19.6234 12.9632 19.5339C12.8436 19.255 12.7367 18.982 12.6495 18.6909C12.6192 18.6096 12.5888 18.5283 12.5576 18.4445C12.3711 18.3763 12.1824 18.3138 11.9927 18.2551C11.723 18.1109 11.5648 17.9635 11.4278 17.6869C11.4108 17.3752 11.4108 17.3752 11.4337 17.03C11.4701 16.2753 11.2623 15.7913 10.913 15.1346C10.7477 14.8576 10.7477 14.8576 10.7688 14.562C10.7067 14.562 10.6446 14.562 10.5805 14.562C10.5575 14.503 10.5344 14.444 10.5107 14.3833C10.1397 13.4608 9.71517 12.5651 9.28107 11.6713C9.18066 11.4626 9.08362 11.2527 8.98742 11.0419C8.61115 10.2607 8.61115 10.2607 8.3181 10.1031C8.12098 10.058 8.12098 10.058 7.75617 10.0165C7.39107 9.78503 7.19374 9.59173 7.09715 9.16428C7.1045 8.69873 7.14319 8.48589 7.38547 8.08711C7.71777 7.78842 7.96546 7.64511 8.41519 7.64914C8.77312 7.75008 9.14175 7.87794 9.38087 8.17496C9.61759 8.37271 9.7919 8.34829 10.0969 8.34936C10.2121 8.35044 10.3274 8.35151 10.4461 8.35262C10.574 8.35237 10.7019 8.35209 10.8298 8.35178C10.9643 8.35247 11.0989 8.35328 11.2334 8.35421C11.5991 8.35631 11.9648 8.35659 12.3305 8.35641C12.6358 8.3564 12.9411 8.35721 13.2465 8.358C13.9669 8.35982 14.6873 8.36009 15.4078 8.35945C16.1508 8.35882 16.8937 8.36099 17.6367 8.3645C18.2747 8.36741 18.9126 8.36848 19.5506 8.36812C19.9316 8.36792 20.3125 8.36844 20.6935 8.37076C21.052 8.37287 21.4104 8.37269 21.7689 8.37076C21.9003 8.37044 22.0317 8.37092 22.1631 8.37228C23.2795 8.38299 23.2794 8.38299 23.6429 8.07773C23.7129 7.9988 23.7829 7.91986 23.855 7.83853C24.4796 7.52852 24.9311 7.70193 25.4908 8.08711Z" fill="#CB0023"/>
<path d="M22.9136 9.16455C18.7194 9.16455 14.5252 9.16455 10.2039 9.16455C10.2039 9.2583 10.2039 9.35205 10.2039 9.44864C10.4089 9.60598 10.6098 9.74374 10.8277 9.88069C10.9583 9.96546 11.0889 10.0504 11.2193 10.1356C11.2858 10.1788 11.3524 10.222 11.4209 10.2666C11.7132 10.4597 11.9974 10.6633 12.281 10.8691C12.3351 10.9082 12.3891 10.9472 12.4448 10.9875C12.608 11.1057 12.7711 11.2241 12.9342 11.3426C13.6942 11.8931 14.4586 12.4361 15.232 12.9674C15.3206 13.0283 15.3206 13.0283 15.411 13.0904C15.4976 13.1493 15.4976 13.1493 15.586 13.2093C15.7042 13.2928 15.8198 13.3801 15.9329 13.4704C16.3572 13.8048 16.3572 13.8048 16.6658 13.8043C16.9109 13.7004 17.1211 13.5821 17.3413 13.4318C17.4157 13.3821 17.4901 13.3324 17.5668 13.2812C17.6225 13.2352 17.6782 13.1892 17.7356 13.1418C17.7356 13.0793 17.7356 13.0168 17.7356 12.9524C17.8007 12.9299 17.8659 12.9075 17.9331 12.8843C18.2574 12.7403 18.5287 12.5473 18.8124 12.3369C18.9294 12.2514 19.0465 12.166 19.1636 12.0805C19.253 12.0149 19.253 12.0149 19.3443 11.9479C19.6305 11.7383 19.9187 11.5316 20.2069 11.3248C20.262 11.2853 20.317 11.2458 20.3738 11.205C20.5299 11.093 20.6861 10.981 20.8424 10.8691C20.9689 10.7783 20.9689 10.7783 21.098 10.6856C21.5918 10.3341 22.0951 10.0104 22.6168 9.70203C22.8194 9.54334 22.8194 9.54334 22.9136 9.16455Z" fill="#CA0022"/>
<path d="M16.3236 15.13C16.0842 15.2724 16.0842 15.2724 15.8352 15.4674C15.7453 15.5363 15.6553 15.6053 15.5627 15.6764C15.472 15.7461 15.3814 15.8158 15.288 15.8876C15.1199 16.0069 14.9513 16.1253 14.782 16.2427C14.6673 16.324 14.6673 16.324 14.5503 16.4069C14.3897 16.5201 14.2272 16.6305 14.0641 16.7399C13.8088 16.9966 13.7727 17.2434 13.6875 17.5921C13.606 17.7152 13.606 17.7152 13.5228 17.8407C13.4645 17.952 13.4645 17.952 13.4051 18.0656C13.5484 18.5237 13.7876 18.9584 13.9935 19.3914C14.336 20.115 14.6726 20.8412 15.0055 21.5694C15.4285 22.4935 15.8662 23.4081 16.3236 24.3156C16.3857 24.3156 16.4479 24.3156 16.5119 24.3156C16.7828 23.7438 17.0535 23.1718 17.3241 22.5998C17.4418 22.3512 17.5599 22.1027 17.678 21.8542C18.0657 21.0372 18.4434 20.2169 18.8043 19.3876C18.9348 19.0885 19.0675 18.7966 19.2174 18.5065C19.358 18.209 19.3493 18.0883 19.2421 17.7815C19.18 17.6878 19.1178 17.594 19.0538 17.4974C19.0494 17.3642 19.0495 17.2308 19.0531 17.0976C19.0253 16.7971 18.9891 16.6765 18.7806 16.4547C18.5371 16.2699 18.2885 16.1036 18.03 15.9409C17.943 15.8831 17.8559 15.8253 17.7663 15.7657C17.5379 15.6145 17.3077 15.4666 17.0767 15.3194C16.7676 15.1121 16.682 15.0825 16.3236 15.13Z" fill="#CB0022"/>
<path d="M10.0158 10.3008C9.95369 10.332 9.89156 10.3633 9.82754 10.3955C10.2017 11.3582 10.6671 12.2859 11.1078 13.2193C11.3899 13.817 11.6684 14.4164 11.9451 15.0167C11.9919 15.1167 12.0388 15.2167 12.087 15.3197C12.1284 15.4233 12.1698 15.527 12.2124 15.6337C12.3695 15.8879 12.3695 15.8879 12.6243 15.9981C12.7208 16.0125 12.8173 16.0269 12.9167 16.0417C13.0124 16.0586 13.1082 16.0754 13.2068 16.0928C13.5929 16.0723 13.7586 15.9324 14.0641 15.6985C14.1663 15.6291 14.2684 15.5598 14.3737 15.4884C14.4785 15.4164 14.5831 15.3444 14.6878 15.2723C14.7405 15.2366 14.7931 15.2008 14.8474 15.164C15.15 14.9551 15.4143 14.7375 15.6646 14.4674C15.3427 14.127 15.0158 13.8541 14.629 13.5915C14.5196 13.5166 14.4103 13.4418 14.3009 13.3669C14.2456 13.3294 14.1904 13.2918 14.1334 13.2531C12.7382 12.3023 11.3557 11.3291 10.0158 10.3008Z" fill="#CA0021"/>
<path d="M22.8193 10.585C22.0867 11.0339 21.3971 11.5261 20.7084 12.0394C20.2883 12.3525 19.8599 12.653 19.4301 12.9524C19.2731 13.0628 19.1162 13.1732 18.9594 13.2838C18.8829 13.3376 18.8065 13.3915 18.7277 13.4469C18.3342 13.724 17.9407 14.0011 17.5472 14.2781C17.5825 14.5189 17.6153 14.6324 17.7945 14.8012C17.8592 14.8456 17.924 14.89 17.9907 14.9358C18.0613 14.985 18.132 15.0342 18.2047 15.0849C18.279 15.1351 18.3533 15.1852 18.4298 15.2369C18.5034 15.2878 18.5769 15.3387 18.6527 15.3912C19.55 16.0109 19.55 16.0109 19.9479 15.9649C20.0207 15.9577 20.0935 15.9505 20.1686 15.9431C20.4157 15.876 20.499 15.8078 20.654 15.6039C20.7581 15.3808 20.7581 15.3808 20.8599 15.1126C21.0469 14.6437 21.2551 14.1947 21.4836 13.7454C21.8075 13.1074 22.1021 12.4594 22.3849 11.8019C22.4145 11.7337 22.444 11.6655 22.4744 11.5952C22.5002 11.5349 22.5259 11.4746 22.5525 11.4125C22.6387 11.2219 22.6387 11.2219 22.8193 10.9637C22.8193 10.8387 22.8193 10.7137 22.8193 10.585Z" fill="#CA0021"/>
</svg>
