<svg width="1134" height="502" viewBox="0 0 1134 502" fill="none" xmlns="http://www.w3.org/2000/svg">
<g filter="url(#filter0_ddd_14_1385)">
<ellipse cx="30.8665" cy="31.6193" rx="30.8665" ry="31.6193" transform="matrix(0.996266 0.0863386 0.423361 0.905961 224.362 9.18945)" fill="#FFFEFE"/>
</g>
<g clip-path="url(#clip0_14_1385)" filter="url(#filter1_f_14_1385)">
<path d="M263.288 30.5563L274.899 32.4513L279.257 36.5741L272.407 42.0369L259.23 38.9577L259.045 34.2291L263.288 30.5563Z" fill="#C0BFBF" stroke="#B1AEAE" stroke-width="2" stroke-linejoin="round"/>
<path d="M259.045 34.2292L270.466 36.5368L259.045 34.2292Z" fill="#C0BFBF"/>
<path d="M259.045 34.2292L270.466 36.5368" stroke="#B1AEAE" stroke-width="2" stroke-linecap="round"/>
<path d="M272.407 42.0369L270.29 36.2203L274.899 32.4513" fill="#C0BFBF"/>
<path d="M272.407 42.0369L270.29 36.2203L274.899 32.4513" stroke="#B1AEAE" stroke-width="2" stroke-linecap="round" stroke-linejoin="round"/>
<path d="M274.064 45.4659L278.308 49.3898L270.995 55.2641L258.639 51.914L258.048 46.6515L261.388 43.7655" fill="#C0BFBF"/>
<path d="M274.064 45.4659L278.308 49.3898L270.995 55.2641L258.639 51.914L258.048 46.6515L261.388 43.7655" stroke="#B1AEAE" stroke-width="2" stroke-linecap="round" stroke-linejoin="round"/>
<path d="M258.048 46.6513L269.323 49.5009L258.048 46.6513Z" fill="#C0BFBF"/>
<path d="M258.048 46.6513L269.323 49.5009" stroke="#B1AEAE" stroke-width="2" stroke-linecap="round"/>
<path d="M270.803 54.9177L269.231 49.0039L274.07 45.4807" fill="#C0BFBF"/>
<path d="M270.803 54.9177L269.231 49.0039L274.07 45.4807" stroke="#B1AEAE" stroke-width="2" stroke-linecap="round" stroke-linejoin="round"/>
<path d="M280.451 40.8347L282.519 46.0132L288.301 41.366L284.39 37.5006L280.451 40.8347Z" fill="#C0BFBF" stroke="#B1AEAE" stroke-width="2" stroke-linejoin="round"/>
</g>
<g filter="url(#filter2_ddd_14_1385)">
<ellipse cx="52.4599" cy="40.8612" rx="52.4599" ry="40.8612" transform="matrix(0.931342 0.364146 0.150311 0.988639 48 71.9774)" fill="#FFFEFE"/>
</g>
<g clip-path="url(#clip1_14_1385)" filter="url(#filter3_f_14_1385)">
<path d="M92.9401 112.907L111.171 119.339L117.349 127.034L105.307 133.424L84.7985 124.686L85.4257 117.312L92.9401 112.907Z" fill="#919191" stroke="#848282" stroke-width="2" stroke-linejoin="round"/>
<path d="M85.4255 117.312L103.271 124.326L85.4255 117.312Z" fill="#919191"/>
<path d="M85.4255 117.312L103.271 124.326" stroke="#848282" stroke-width="2" stroke-linecap="round"/>
<path d="M105.308 133.424L103.052 123.783L111.171 119.339" fill="#919191"/>
<path d="M105.308 133.424L103.052 123.783L111.171 119.339" stroke="#848282" stroke-width="2" stroke-linecap="round" stroke-linejoin="round"/>
<path d="M107.292 139.23L113.325 146.582L100.463 153.47L81.3218 144.561L81.4028 136.238L87.3169 132.778" fill="#919191"/>
<path d="M107.292 139.23L113.325 146.582L100.463 153.47L81.3218 144.561L81.4028 136.238L87.3169 132.778" stroke="#848282" stroke-width="2" stroke-linecap="round" stroke-linejoin="round"/>
<path d="M81.4026 136.238L98.9102 144.046L81.4026 136.238Z" fill="#919191"/>
<path d="M81.4026 136.238L98.9102 144.046" stroke="#848282" stroke-width="2" stroke-linecap="round"/>
<path d="M100.223 152.876L98.8598 143.25L107.299 139.255" fill="#919191"/>
<path d="M100.223 152.876L98.8598 143.25L107.299 139.255" stroke="#848282" stroke-width="2" stroke-linecap="round" stroke-linejoin="round"/>
<path d="M118.429 133.987L120.731 142.626L130.902 137.176L125.39 130.014L118.429 133.987Z" fill="#919191" stroke="#848282" stroke-width="2" stroke-linejoin="round"/>
</g>
<g filter="url(#filter4_ddd_14_1385)">
<ellipse cx="18.3995" cy="18.1149" rx="18.3995" ry="18.1149" transform="matrix(0.996266 0.0863386 0.423361 0.905961 850 4)" fill="#FFFEFE"/>
</g>
<g clip-path="url(#clip2_14_1385)" filter="url(#filter5_f_14_1385)">
<path d="M873.447 14.2566L879.809 16.5011L881.965 19.1861L877.763 21.4159L870.607 18.3671L870.825 15.7939L873.447 14.2566Z" fill="#919191" stroke="#848282" stroke-linejoin="round"/>
<path d="M870.825 15.7939L877.052 18.2413L870.825 15.7939Z" fill="#919191"/>
<path d="M870.825 15.7939L877.052 18.2413" stroke="#848282" stroke-linecap="round"/>
<path d="M877.763 21.4159L876.976 18.0519L879.809 16.5011" fill="#919191"/>
<path d="M877.763 21.4159L876.976 18.0519L879.809 16.5011" stroke="#848282" stroke-linecap="round" stroke-linejoin="round"/>
<path d="M878.456 23.4421L880.561 26.0076L876.073 28.4111L869.393 25.3022L869.422 22.398L871.485 21.1906" fill="#919191"/>
<path d="M878.456 23.4421L880.561 26.0076L876.073 28.4111L869.393 25.3022L869.422 22.398L871.485 21.1906" stroke="#848282" stroke-linecap="round" stroke-linejoin="round"/>
<path d="M869.421 22.3979L875.531 25.1227L869.421 22.3979Z" fill="#919191"/>
<path d="M869.421 22.3979L875.531 25.1227" stroke="#848282" stroke-linecap="round"/>
<path d="M875.989 28.2038L875.513 24.8446L878.458 23.4507" fill="#919191"/>
<path d="M875.989 28.2038L875.513 24.8446L878.458 23.4507" stroke="#848282" stroke-linecap="round" stroke-linejoin="round"/>
<path d="M882.342 21.6126L883.145 24.6269L886.694 22.7253L884.771 20.2263L882.342 21.6126Z" fill="#919191" stroke="#848282" stroke-linejoin="round"/>
</g>
<g filter="url(#filter6_ddd_14_1385)">
<ellipse cx="79.4473" cy="82.3527" rx="79.4473" ry="82.3527" transform="matrix(-0.927184 -0.374607 0 1 245.324 310.522)" fill="#FFFEFE"/>
</g>
<path d="M160.813 325.543L195.231 339.177L206.193 354.794L182.107 367.004L143.579 348.672L145.729 333.995L160.813 325.543Z" fill="#E49957" stroke="#E8B829" stroke-width="2" stroke-linejoin="round"/>
<path d="M145.728 333.995L179.328 348.771L145.728 333.995Z" fill="#E49957"/>
<path d="M145.728 333.995L179.328 348.771" stroke="#E8B829" stroke-width="2" stroke-linecap="round"/>
<path d="M182.108 367.004L178.974 347.68L195.231 339.177" fill="#E49957"/>
<path d="M182.108 367.004L178.974 347.68L195.231 339.177" stroke="#E8B829" stroke-width="2" stroke-linecap="round" stroke-linejoin="round"/>
<path d="M185.205 378.671L195.932 393.599L170.196 406.764L134.332 388.15L135.547 371.557L147.418 364.919" fill="#E49957"/>
<path d="M185.205 378.671L195.932 393.599L170.196 406.764L134.332 388.15L135.547 371.557L147.418 364.919" stroke="#E8B829" stroke-width="2" stroke-linecap="round" stroke-linejoin="round"/>
<path d="M135.546 371.556L168.392 387.903L135.546 371.556Z" fill="#E49957"/>
<path d="M135.546 371.556L168.392 387.903" stroke="#E8B829" stroke-width="2" stroke-linecap="round"/>
<path d="M169.807 405.569L168.396 386.312L185.216 378.72" fill="#E49957"/>
<path d="M169.807 405.569L168.396 386.312L185.216 378.72" stroke="#E8B829" stroke-width="2" stroke-linecap="round" stroke-linejoin="round"/>
<path d="M207.396 368.709L210.747 386.037L231.1 375.62L221.357 361.095L207.396 368.709Z" fill="#E49957" stroke="#E8B829" stroke-width="2" stroke-linejoin="round"/>
<g filter="url(#filter7_ddd_14_1385)">
<ellipse cx="27.1648" cy="33.9943" rx="27.1648" ry="33.9943" transform="matrix(-0.931342 0.364146 -0.150311 0.988639 1084.82 88)" fill="#FFFEFE"/>
</g>
<g clip-path="url(#clip3_14_1385)" filter="url(#filter8_f_14_1385)">
<path d="M1048.93 118.079L1042.03 128.004L1041.82 134.207L1050.47 133.131L1057.64 121.194L1054.48 117.623L1048.93 118.079Z" fill="#E49957" stroke="#E8B829" stroke-width="2" stroke-linejoin="round"/>
<path d="M1054.48 117.623L1048.01 127.707L1054.48 117.623Z" fill="#E49957"/>
<path d="M1054.48 117.623L1048.01 127.707" stroke="#E8B829" stroke-width="2" stroke-linecap="round"/>
<path d="M1050.47 133.131L1047.92 127.348L1042.03 128.004" fill="#E49957"/>
<path d="M1050.47 133.131L1047.92 127.348L1042.03 128.004" stroke="#E8B829" stroke-width="2" stroke-linecap="round" stroke-linejoin="round"/>
<path d="M1051.68 136.842L1051.41 142.816L1060.67 141.699L1067.08 130.169L1063.83 125.912L1059.46 126.274" fill="#E49957"/>
<path d="M1051.68 136.842L1051.41 142.816L1060.67 141.699L1067.08 130.169L1063.83 125.912L1059.46 126.274" stroke="#E8B829" stroke-width="2" stroke-linecap="round" stroke-linejoin="round"/>
<path d="M1063.83 125.911L1057.84 136.282L1063.83 125.911Z" fill="#E49957"/>
<path d="M1063.83 125.911L1057.84 136.282" stroke="#E8B829" stroke-width="2" stroke-linecap="round"/>
<path d="M1060.57 141.306L1057.56 135.854L1051.69 136.857" fill="#E49957"/>
<path d="M1060.57 141.306L1057.56 135.854L1051.69 136.857" stroke="#E8B829" stroke-width="2" stroke-linecap="round" stroke-linejoin="round"/>
<path d="M1043.94 138.18L1046.08 143.464L1038.76 144.346L1038.84 138.659L1043.94 138.18Z" fill="#E49957" stroke="#E8B829" stroke-width="2" stroke-linejoin="round"/>
</g>
<g filter="url(#filter9_ddd_14_1385)">
<ellipse cx="70.2976" cy="76.0972" rx="70.2976" ry="76.0972" transform="matrix(-0.931342 0.364146 -0.150311 0.988639 978.819 254)" fill="#FFFEFE"/>
</g>
<g clip-path="url(#clip4_14_1385)">
<path d="M886.476 317.968L869.957 341.693L870.11 356.807L892.117 354.781L909.134 326.165L900.644 317.239L886.476 317.968Z" fill="#CECECE" stroke="#C0BCBC" stroke-width="2" stroke-linejoin="round"/>
<path d="M900.645 317.239L885.223 341.383L900.645 317.239Z" fill="#CECECE"/>
<path d="M900.645 317.239L885.223 341.383" stroke="#C0BCBC" stroke-width="2" stroke-linecap="round"/>
<path d="M892.116 354.781L884.935 340.502L869.956 341.693" fill="#CECECE"/>
<path d="M892.116 354.781L884.935 340.502L869.956 341.693" stroke="#C0BCBC" stroke-width="2" stroke-linecap="round" stroke-linejoin="round"/>
<path d="M895.644 363.913L895.624 378.464L919.196 376.379L934.292 348.704L925.508 338.098L914.365 338.68" fill="#CECECE"/>
<path d="M895.644 363.913L895.624 378.464L919.196 376.379L934.292 348.704L925.508 338.098L914.365 338.68" stroke="#C0BCBC" stroke-width="2" stroke-linecap="round" stroke-linejoin="round"/>
<path d="M925.508 338.097L911.346 362.974L925.508 338.097Z" fill="#CECECE"/>
<path d="M925.508 338.097L911.346 362.974" stroke="#C0BCBC" stroke-width="2" stroke-linecap="round"/>
<path d="M918.882 375.414L910.579 361.91L895.66 363.951" fill="#CECECE"/>
<path d="M918.882 375.414L910.579 361.91L895.66 363.951" stroke="#C0BCBC" stroke-width="2" stroke-linecap="round" stroke-linejoin="round"/>
<path d="M875.987 366.642L882.063 379.675L863.42 381.32L862.974 367.456L875.987 366.642Z" fill="#CECECE" stroke="#C0BCBC" stroke-width="2" stroke-linejoin="round"/>
</g>
<defs>
<filter id="filter0_ddd_14_1385" x="181.953" y="6.72881" width="123.094" height="113.543" filterUnits="userSpaceOnUse" color-interpolation-filters="sRGB">
<feFlood flood-opacity="0" result="BackgroundImageFix"/>
<feColorMatrix in="SourceAlpha" type="matrix" values="0 0 0 0 0 0 0 0 0 0 0 0 0 0 0 0 0 0 127 0" result="hardAlpha"/>
<feOffset dx="-4" dy="4"/>
<feComposite in2="hardAlpha" operator="out"/>
<feColorMatrix type="matrix" values="0 0 0 0 0 0 0 0 0 0 0 0 0 0 0 0 0 0 0.4 0"/>
<feBlend mode="normal" in2="BackgroundImageFix" result="effect1_dropShadow_14_1385"/>
<feColorMatrix in="SourceAlpha" type="matrix" values="0 0 0 0 0 0 0 0 0 0 0 0 0 0 0 0 0 0 127 0" result="hardAlpha"/>
<feOffset dx="-25" dy="23"/>
<feGaussianBlur stdDeviation="14"/>
<feComposite in2="hardAlpha" operator="out"/>
<feColorMatrix type="matrix" values="0 0 0 0 0.933333 0 0 0 0 0.258824 0 0 0 0 0.137255 0 0 0 0.15 0"/>
<feBlend mode="normal" in2="effect1_dropShadow_14_1385" result="effect2_dropShadow_14_1385"/>
<feColorMatrix in="SourceAlpha" type="matrix" values="0 0 0 0 0 0 0 0 0 0 0 0 0 0 0 0 0 0 127 0" result="hardAlpha"/>
<feOffset/>
<feGaussianBlur stdDeviation="0.5"/>
<feComposite in2="hardAlpha" operator="out"/>
<feColorMatrix type="matrix" values="0 0 0 0 0 0 0 0 0 0 0 0 0 0 0 0 0 0 0.25 0"/>
<feBlend mode="normal" in2="effect2_dropShadow_14_1385" result="effect3_dropShadow_14_1385"/>
<feBlend mode="normal" in="SourceGraphic" in2="effect3_dropShadow_14_1385" result="shape"/>
</filter>
<filter id="filter1_f_14_1385" x="241" y="11.9999" width="59.49" height="58.2009" filterUnits="userSpaceOnUse" color-interpolation-filters="sRGB">
<feFlood flood-opacity="0" result="BackgroundImageFix"/>
<feBlend mode="normal" in="SourceGraphic" in2="BackgroundImageFix" result="shape"/>
<feGaussianBlur stdDeviation="2" result="effect1_foregroundBlur_14_1385"/>
</filter>
<filter id="filter2_ddd_14_1385" x="0.752197" y="81.7808" width="154.496" height="145.393" filterUnits="userSpaceOnUse" color-interpolation-filters="sRGB">
<feFlood flood-opacity="0" result="BackgroundImageFix"/>
<feColorMatrix in="SourceAlpha" type="matrix" values="0 0 0 0 0 0 0 0 0 0 0 0 0 0 0 0 0 0 127 0" result="hardAlpha"/>
<feOffset dx="-4" dy="4"/>
<feComposite in2="hardAlpha" operator="out"/>
<feColorMatrix type="matrix" values="0 0 0 0 0 0 0 0 0 0 0 0 0 0 0 0 0 0 0.4 0"/>
<feBlend mode="normal" in2="BackgroundImageFix" result="effect1_dropShadow_14_1385"/>
<feColorMatrix in="SourceAlpha" type="matrix" values="0 0 0 0 0 0 0 0 0 0 0 0 0 0 0 0 0 0 127 0" result="hardAlpha"/>
<feOffset dx="-25" dy="23"/>
<feGaussianBlur stdDeviation="14"/>
<feComposite in2="hardAlpha" operator="out"/>
<feColorMatrix type="matrix" values="0 0 0 0 0.933333 0 0 0 0 0.258824 0 0 0 0 0.137255 0 0 0 0.15 0"/>
<feBlend mode="normal" in2="effect1_dropShadow_14_1385" result="effect2_dropShadow_14_1385"/>
<feColorMatrix in="SourceAlpha" type="matrix" values="0 0 0 0 0 0 0 0 0 0 0 0 0 0 0 0 0 0 127 0" result="hardAlpha"/>
<feOffset/>
<feGaussianBlur stdDeviation="0.5"/>
<feComposite in2="hardAlpha" operator="out"/>
<feColorMatrix type="matrix" values="0 0 0 0 0 0 0 0 0 0 0 0 0 0 0 0 0 0 0.25 0"/>
<feBlend mode="normal" in2="effect2_dropShadow_14_1385" result="effect3_dropShadow_14_1385"/>
<feBlend mode="normal" in="SourceGraphic" in2="effect3_dropShadow_14_1385" result="shape"/>
</filter>
<filter id="filter3_f_14_1385" x="61" y="92.9778" width="83.6558" height="76.991" filterUnits="userSpaceOnUse" color-interpolation-filters="sRGB">
<feFlood flood-opacity="0" result="BackgroundImageFix"/>
<feBlend mode="normal" in="SourceGraphic" in2="BackgroundImageFix" result="shape"/>
<feGaussianBlur stdDeviation="1" result="effect1_foregroundBlur_14_1385"/>
</filter>
<filter id="filter4_ddd_14_1385" x="803.124" y="0.510712" width="95.7515" height="88.9786" filterUnits="userSpaceOnUse" color-interpolation-filters="sRGB">
<feFlood flood-opacity="0" result="BackgroundImageFix"/>
<feColorMatrix in="SourceAlpha" type="matrix" values="0 0 0 0 0 0 0 0 0 0 0 0 0 0 0 0 0 0 127 0" result="hardAlpha"/>
<feOffset dx="-4" dy="4"/>
<feComposite in2="hardAlpha" operator="out"/>
<feColorMatrix type="matrix" values="0 0 0 0 0 0 0 0 0 0 0 0 0 0 0 0 0 0 0.4 0"/>
<feBlend mode="normal" in2="BackgroundImageFix" result="effect1_dropShadow_14_1385"/>
<feColorMatrix in="SourceAlpha" type="matrix" values="0 0 0 0 0 0 0 0 0 0 0 0 0 0 0 0 0 0 127 0" result="hardAlpha"/>
<feOffset dx="-25" dy="23"/>
<feGaussianBlur stdDeviation="14"/>
<feComposite in2="hardAlpha" operator="out"/>
<feColorMatrix type="matrix" values="0 0 0 0 0.933333 0 0 0 0 0.258824 0 0 0 0 0.137255 0 0 0 0.15 0"/>
<feBlend mode="normal" in2="effect1_dropShadow_14_1385" result="effect2_dropShadow_14_1385"/>
<feColorMatrix in="SourceAlpha" type="matrix" values="0 0 0 0 0 0 0 0 0 0 0 0 0 0 0 0 0 0 127 0" result="hardAlpha"/>
<feOffset/>
<feGaussianBlur stdDeviation="0.5"/>
<feComposite in2="hardAlpha" operator="out"/>
<feColorMatrix type="matrix" values="0 0 0 0 0 0 0 0 0 0 0 0 0 0 0 0 0 0 0.25 0"/>
<feBlend mode="normal" in2="effect2_dropShadow_14_1385" result="effect3_dropShadow_14_1385"/>
<feBlend mode="normal" in="SourceGraphic" in2="effect3_dropShadow_14_1385" result="shape"/>
</filter>
<filter id="filter5_f_14_1385" x="859" y="4.0004" width="35.7954" height="33.4699" filterUnits="userSpaceOnUse" color-interpolation-filters="sRGB">
<feFlood flood-opacity="0" result="BackgroundImageFix"/>
<feBlend mode="normal" in="SourceGraphic" in2="BackgroundImageFix" result="shape"/>
<feGaussianBlur stdDeviation="2" result="effect1_foregroundBlur_14_1385"/>
</filter>
<filter id="filter6_ddd_14_1385" x="44.9993" y="270.523" width="203.325" height="231.179" filterUnits="userSpaceOnUse" color-interpolation-filters="sRGB">
<feFlood flood-opacity="0" result="BackgroundImageFix"/>
<feColorMatrix in="SourceAlpha" type="matrix" values="0 0 0 0 0 0 0 0 0 0 0 0 0 0 0 0 0 0 127 0" result="hardAlpha"/>
<feOffset dx="-4" dy="4"/>
<feComposite in2="hardAlpha" operator="out"/>
<feColorMatrix type="matrix" values="0 0 0 0 0 0 0 0 0 0 0 0 0 0 0 0 0 0 0.4 0"/>
<feBlend mode="normal" in2="BackgroundImageFix" result="effect1_dropShadow_14_1385"/>
<feColorMatrix in="SourceAlpha" type="matrix" values="0 0 0 0 0 0 0 0 0 0 0 0 0 0 0 0 0 0 127 0" result="hardAlpha"/>
<feOffset dx="-25" dy="23"/>
<feGaussianBlur stdDeviation="14"/>
<feComposite in2="hardAlpha" operator="out"/>
<feColorMatrix type="matrix" values="0 0 0 0 0.933333 0 0 0 0 0.258824 0 0 0 0 0.137255 0 0 0 0.15 0"/>
<feBlend mode="normal" in2="effect1_dropShadow_14_1385" result="effect2_dropShadow_14_1385"/>
<feColorMatrix in="SourceAlpha" type="matrix" values="0 0 0 0 0 0 0 0 0 0 0 0 0 0 0 0 0 0 127 0" result="hardAlpha"/>
<feOffset/>
<feGaussianBlur stdDeviation="0.5"/>
<feComposite in2="hardAlpha" operator="out"/>
<feColorMatrix type="matrix" values="0 0 0 0 0 0 0 0 0 0 0 0 0 0 0 0 0 0 0.25 0"/>
<feBlend mode="normal" in2="effect2_dropShadow_14_1385" result="effect3_dropShadow_14_1385"/>
<feBlend mode="normal" in="SourceGraphic" in2="effect3_dropShadow_14_1385" result="shape"/>
</filter>
<filter id="filter7_ddd_14_1385" x="1025.59" y="91.4573" width="107.631" height="126.085" filterUnits="userSpaceOnUse" color-interpolation-filters="sRGB">
<feFlood flood-opacity="0" result="BackgroundImageFix"/>
<feColorMatrix in="SourceAlpha" type="matrix" values="0 0 0 0 0 0 0 0 0 0 0 0 0 0 0 0 0 0 127 0" result="hardAlpha"/>
<feOffset dx="5" dy="4"/>
<feGaussianBlur stdDeviation="1"/>
<feComposite in2="hardAlpha" operator="out"/>
<feColorMatrix type="matrix" values="0 0 0 0 0 0 0 0 0 0 0 0 0 0 0 0 0 0 0.4 0"/>
<feBlend mode="normal" in2="BackgroundImageFix" result="effect1_dropShadow_14_1385"/>
<feColorMatrix in="SourceAlpha" type="matrix" values="0 0 0 0 0 0 0 0 0 0 0 0 0 0 0 0 0 0 127 0" result="hardAlpha"/>
<feOffset dx="25" dy="23"/>
<feGaussianBlur stdDeviation="14"/>
<feComposite in2="hardAlpha" operator="out"/>
<feColorMatrix type="matrix" values="0 0 0 0 0.933333 0 0 0 0 0.258824 0 0 0 0 0.137255 0 0 0 0.15 0"/>
<feBlend mode="normal" in2="effect1_dropShadow_14_1385" result="effect2_dropShadow_14_1385"/>
<feColorMatrix in="SourceAlpha" type="matrix" values="0 0 0 0 0 0 0 0 0 0 0 0 0 0 0 0 0 0 127 0" result="hardAlpha"/>
<feOffset/>
<feGaussianBlur stdDeviation="0.5"/>
<feComposite in2="hardAlpha" operator="out"/>
<feColorMatrix type="matrix" values="0 0 0 0 0 0 0 0 0 0 0 0 0 0 0 0 0 0 0.25 0"/>
<feBlend mode="normal" in2="effect2_dropShadow_14_1385" result="effect3_dropShadow_14_1385"/>
<feBlend mode="normal" in="SourceGraphic" in2="effect3_dropShadow_14_1385" result="shape"/>
</filter>
<filter id="filter8_f_14_1385" x="1026" y="105" width="49.9824" height="52.4553" filterUnits="userSpaceOnUse" color-interpolation-filters="sRGB">
<feFlood flood-opacity="0" result="BackgroundImageFix"/>
<feBlend mode="normal" in="SourceGraphic" in2="BackgroundImageFix" result="shape"/>
<feGaussianBlur stdDeviation="1" result="effect1_foregroundBlur_14_1385"/>
</filter>
<filter id="filter9_ddd_14_1385" x="832.436" y="270.341" width="188.948" height="214.98" filterUnits="userSpaceOnUse" color-interpolation-filters="sRGB">
<feFlood flood-opacity="0" result="BackgroundImageFix"/>
<feColorMatrix in="SourceAlpha" type="matrix" values="0 0 0 0 0 0 0 0 0 0 0 0 0 0 0 0 0 0 127 0" result="hardAlpha"/>
<feOffset dx="5" dy="4"/>
<feGaussianBlur stdDeviation="1"/>
<feComposite in2="hardAlpha" operator="out"/>
<feColorMatrix type="matrix" values="0 0 0 0 0 0 0 0 0 0 0 0 0 0 0 0 0 0 0.4 0"/>
<feBlend mode="normal" in2="BackgroundImageFix" result="effect1_dropShadow_14_1385"/>
<feColorMatrix in="SourceAlpha" type="matrix" values="0 0 0 0 0 0 0 0 0 0 0 0 0 0 0 0 0 0 127 0" result="hardAlpha"/>
<feOffset dx="25" dy="23"/>
<feGaussianBlur stdDeviation="14"/>
<feComposite in2="hardAlpha" operator="out"/>
<feColorMatrix type="matrix" values="0 0 0 0 0.933333 0 0 0 0 0.258824 0 0 0 0 0.137255 0 0 0 0.15 0"/>
<feBlend mode="normal" in2="effect1_dropShadow_14_1385" result="effect2_dropShadow_14_1385"/>
<feColorMatrix in="SourceAlpha" type="matrix" values="0 0 0 0 0 0 0 0 0 0 0 0 0 0 0 0 0 0 127 0" result="hardAlpha"/>
<feOffset/>
<feGaussianBlur stdDeviation="0.5"/>
<feComposite in2="hardAlpha" operator="out"/>
<feColorMatrix type="matrix" values="0 0 0 0 0 0 0 0 0 0 0 0 0 0 0 0 0 0 0.25 0"/>
<feBlend mode="normal" in2="effect2_dropShadow_14_1385" result="effect3_dropShadow_14_1385"/>
<feBlend mode="normal" in="SourceGraphic" in2="effect3_dropShadow_14_1385" result="shape"/>
</filter>
<clipPath id="clip0_14_1385">
<rect width="38" height="37" fill="white" transform="matrix(0.882948 -0.469472 0.48481 0.87462 245 33.8398)"/>
</clipPath>
<clipPath id="clip1_14_1385">
<rect width="59.8505" height="59.8505" fill="white" transform="matrix(0.956305 -0.292372 0.374607 0.927184 63 112.476)"/>
</clipPath>
<clipPath id="clip2_14_1385">
<rect width="20.8846" height="20.8846" fill="white" transform="matrix(0.956305 -0.292372 0.374607 0.927184 863 14.1064)"/>
</clipPath>
<clipPath id="clip3_14_1385">
<rect width="38.0059" height="38.0059" fill="white" transform="matrix(-0.951057 0.309017 0.258819 0.965926 1064.15 107)"/>
</clipPath>
<clipPath id="clip4_14_1385">
<rect width="94.8472" height="94.8472" fill="white" transform="matrix(-0.961262 0.275637 0.309017 0.951057 924.173 292)"/>
</clipPath>
</defs>
</svg>
