<svg xmlns="http://www.w3.org/2000/svg" viewBox="0 0 1600 800" width="100%" height="100%" preserveAspectRatio="none" style="--bg:whitesmoke; --ink:#ff0000;">
  <defs>
    <!-- Mesh grid -->
    <pattern id="digital-mesh" width="160" height="160" patternUnits="userSpaceOnUse">
      <path d="M0 0 L160 160 M-40 40 L120 200 M40 -40 L200 120" 
            stroke="var(--ink)" stroke-width="1.2" opacity=".15" fill="none"/>
      <path d="M160 0 L0 160 M200 40 L40 200 M120 -40 L-40 120" 
            stroke="var(--ink)" stroke-width="1.2" opacity=".15" fill="none"/>
    </pattern>

    <!-- Node glow -->
    <radialGradient id="node-glow" cx="50%" cy="50%" r="50%">
      <stop offset="0%" stop-color="var(--ink)" stop-opacity="0.8"/>
      <stop offset="100%" stop-color="transparent"/>
    </radialGradient>

    <!-- Area fill under graph -->
    <linearGradient id="area-fill" x1="0" y1="0" x2="0" y2="1">
      <stop offset="0%" stop-color="var(--ink)" stop-opacity="0.25"/>
      <stop offset="100%" stop-color="transparent"/>
    </linearGradient>
  </defs>

  <!-- Background + Mesh -->
  <rect width="100%" height="100%" fill="var(--bg)" />
  <rect width="100%" height="100%" fill="url(#digital-mesh)" />

  <!-- Glowing market nodes -->
  <circle cx="300" cy="400" r="8" fill="url(#node-glow)" />
  <circle cx="700" cy="250" r="10" fill="url(#node-glow)" />
  <circle cx="1100" cy="500" r="7" fill="url(#node-glow)" />
  <circle cx="900" cy="350" r="9" fill="url(#node-glow)" />
  <circle cx="500" cy="600" r="6" fill="url(#node-glow)" />

  <!-- Trading graph area -->
  <path d="M0 600 
           L200 500 
           L400 550 
           L600 400 
           L800 450 
           L1000 300 
           L1200 380 
           L1400 280 
           L1600 350 
           V800 H0 Z" 
        fill="url(#area-fill)" opacity=".15" />

  <!-- Trading graph line -->
  <path d="M0 600 
           L200 500 
           L400 550 
           L600 400 
           L800 450 
           L1000 300 
           L1200 380 
           L1400 280 
           L1600 350" 
        fill="none" 
        stroke="var(--ink)" 
        stroke-width="3" 
        stroke-linejoin="round"
        stroke-linecap="round" opacity=".15"/>

<image 
    href="icons-left.svg"   
    x="120"                
    y="200"                 
    width="300"             
    height="300"            
    preserveAspectRatio="xMidYMid meet"
  />

</svg>
